<svg width="109" height="108" viewBox="0 0 109 108" fill="none" xmlns="http://www.w3.org/2000/svg">
<path d="M46.9073 108C46.2893 95.4664 41.4533 84.8407 32.3994 76.1231C23.3455 67.4054 12.5457 63.0465 -1.96498e-06 63.0465C12.5457 63.0465 23.3455 58.6722 32.3994 49.9235C41.4533 41.1748 46.2893 30.5336 46.9073 18C47.2781 26.2523 49.6111 33.8221 53.9063 40.7094C58.2015 47.5967 63.8872 53.0414 70.9635 57.0434C78.0398 61.0455 85.7186 63.0465 94 63.0465C81.3925 63.0465 70.5464 67.4054 61.4615 76.1231C52.3767 84.8407 47.5253 95.4664 46.9073 108Z" fill="#424242" fill-opacity="0.33"/>
<path d="M84 48C83.6795 41.2903 81.0994 35.6129 76.2596 30.9677C71.4199 26.3226 65.6667 24 59 24C65.6667 24 71.4199 21.6774 76.2596 17.0323C81.0994 12.3871 83.6795 6.70968 84 -1.09278e-06C84.3205 6.70968 86.9006 12.3871 91.7404 17.0323C96.5801 21.6774 102.333 24 109 24C102.333 24 96.5801 26.3226 91.7404 30.9677C86.9006 35.6129 84.3205 41.2903 84 48Z" fill="#424242" fill-opacity="0.33"/>
</svg>
