<svg width="27" height="770" viewBox="0 0 27 770" fill="none" xmlns="http://www.w3.org/2000/svg">
<path d="M13 770L24.547 750L1.45296 750L13 770ZM11 -8.74228e-08L11 6.54248L15 6.54248L15 8.74228e-08L11 -8.74228e-08ZM11 8.55555L11 21.6405L15 21.6405L15 8.55555L11 8.55555ZM11 23.6536L11 36.7386L15 36.7386L15 23.6536L11 23.6536ZM11 38.7516L11 51.8366L15 51.8366L15 38.7516L11 38.7516ZM11 53.8497L11 66.9346L15 66.9346L15 53.8497L11 53.8497ZM11 68.9477L11 82.0327L15 82.0327L15 68.9477L11 68.9477ZM11 84.0458L11 97.1307L15 97.1307L15 84.0458L11 84.0458ZM11 99.1438L11 112.229L15 112.229L15 99.1438L11 99.1438ZM11 114.242L11 127.327L15 127.327L15 114.242L11 114.242ZM11 129.34L11 142.425L15 142.425L15 129.34L11 129.34ZM11 144.438L11 157.523L15 157.523L15 144.438L11 144.438ZM11 159.536L11 172.621L15 172.621L15 159.536L11 159.536ZM11 174.634L11 187.719L15 187.719L15 174.634L11 174.634ZM11 189.732L11 202.817L15 202.817L15 189.732L11 189.732ZM11 204.83L11 217.915L15 217.915L15 204.83L11 204.83ZM11 219.928L11 233.013L15 233.013L15 219.928L11 219.928ZM11 235.026L11 248.111L15 248.111L15 235.026L11 235.026ZM11 250.124L11 263.209L15 263.209L15 250.124L11 250.124ZM11 265.222L11 278.307L15 278.307L15 265.222L11 265.222ZM11 280.32L11 293.405L15 293.405L15 280.32L11 280.32ZM11 295.418L11 308.503L15 308.503L15 295.418L11 295.418ZM11 310.516L11 323.601L15 323.601L15 310.516L11 310.516ZM11 325.614L11 338.699L15 338.699L15 325.614L11 325.614ZM11 340.712L11 353.797L15 353.797L15 340.712L11 340.712ZM11 355.81L11 368.895L15 368.895L15 355.81L11 355.81ZM11 370.908L11 383.993L15 383.993L15 370.908L11 370.908ZM11 386.006L11 399.091L15 399.091L15 386.006L11 386.006ZM11 401.104L11 414.189L15 414.189L15 401.104L11 401.104ZM11 416.202L11 429.287L15 429.287L15 416.202L11 416.202ZM11 431.3L11 444.385L15 444.385L15 431.3L11 431.3ZM11 446.398L11 459.483L15 459.483L15 446.398L11 446.398ZM11 461.496L11 474.581L15 474.581L15 461.496L11 461.496ZM11 476.594L11 489.679L15 489.679L15 476.594L11 476.594ZM11 491.693L11 504.777L15 504.777L15 491.693L11 491.693ZM11 506.791L11 519.876L15 519.876L15 506.791L11 506.791ZM11 521.889L11 534.974L15 534.974L15 521.889L11 521.889ZM11 536.987L11 550.072L15 550.072L15 536.987L11 536.987ZM11 552.085L11 565.17L15 565.17L15 552.085L11 552.085ZM11 567.183L11 580.268L15 580.268L15 567.183L11 567.183ZM11 582.281L11 595.366L15 595.366L15 582.281L11 582.281ZM11 597.379L11 610.464L15 610.464L15 597.379L11 597.379ZM11 612.477L11 625.562L15 625.562L15 612.477L11 612.477ZM11 627.575L11 640.66L15 640.66L15 627.575L11 627.575ZM11 642.673L11 655.758L15 655.758L15 642.673L11 642.673ZM11 657.771L11 670.856L15 670.856L15 657.771L11 657.771ZM11 672.869L11 685.954L15 685.954L15 672.869L11 672.869ZM11 687.967L11 701.052L15 701.052L15 687.967L11 687.967ZM11 703.065L11 716.15L15 716.15L15 703.065L11 703.065ZM11 718.163L11 731.248L15 731.248L15 718.163L11 718.163ZM11 733.261L11 746.346L15 746.346L15 733.261L11 733.261ZM11 748.359L11 761.444L15 761.444L15 748.359L11 748.359Z" fill="#BB65FF"/>
<circle cx="13.5" cy="652.5" r="9.5" fill="url(#paint0_linear_178_8536)" stroke="#313031" stroke-width="3"/>
<path d="M10.96 649.031C11.584 649.031 12.0718 649.254 12.4233 649.699C12.8423 650.227 13.0518 651.101 13.0518 652.323C13.0518 653.542 12.8408 654.417 12.4189 654.951C12.0703 655.39 11.584 655.61 10.96 655.61C10.333 655.61 9.82764 655.37 9.44385 654.889C9.06006 654.406 8.86816 653.546 8.86816 652.31C8.86816 651.097 9.0791 650.224 9.50098 649.69C9.84961 649.251 10.3359 649.031 10.96 649.031ZM10.96 650.055C10.8105 650.055 10.6772 650.104 10.5601 650.2C10.4429 650.294 10.3521 650.464 10.2876 650.71C10.2026 651.029 10.1602 651.567 10.1602 652.323C10.1602 653.079 10.1982 653.599 10.2744 653.883C10.3506 654.164 10.4458 654.352 10.5601 654.445C10.6772 654.539 10.8105 654.586 10.96 654.586C11.1094 654.586 11.2427 654.539 11.3599 654.445C11.4771 654.349 11.5679 654.177 11.6323 653.931C11.7173 653.615 11.7598 653.079 11.7598 652.323C11.7598 651.567 11.7217 651.048 11.6455 650.767C11.5693 650.483 11.4727 650.294 11.3555 650.2C11.2412 650.104 11.1094 650.055 10.96 650.055ZM13.8384 653.791L15.0337 653.646C15.0718 653.95 15.1743 654.183 15.3413 654.344C15.5083 654.505 15.7104 654.586 15.9478 654.586C16.2026 654.586 16.4165 654.489 16.5894 654.296C16.7651 654.103 16.853 653.842 16.853 653.514C16.853 653.203 16.7695 652.957 16.6025 652.775C16.4355 652.594 16.2319 652.503 15.9917 652.503C15.8335 652.503 15.6445 652.534 15.4248 652.595L15.561 651.589C15.895 651.598 16.1499 651.526 16.3257 651.374C16.5015 651.218 16.5894 651.013 16.5894 650.758C16.5894 650.542 16.5249 650.369 16.396 650.24C16.2671 650.111 16.0957 650.046 15.8818 650.046C15.6709 650.046 15.4907 650.12 15.3413 650.266C15.1919 650.413 15.1011 650.626 15.0688 650.908L13.9307 650.714C14.0098 650.325 14.1284 650.014 14.2866 649.783C14.4478 649.548 14.6704 649.365 14.9546 649.233C15.2417 649.099 15.5625 649.031 15.917 649.031C16.5234 649.031 17.0098 649.225 17.376 649.611C17.6777 649.928 17.8286 650.285 17.8286 650.684C17.8286 651.249 17.5195 651.7 16.9014 652.037C17.2705 652.116 17.5649 652.293 17.7847 652.569C18.0073 652.844 18.1187 653.177 18.1187 653.566C18.1187 654.132 17.9121 654.614 17.499 655.012C17.0859 655.411 16.5718 655.61 15.9565 655.61C15.3735 655.61 14.8901 655.443 14.5063 655.109C14.1226 654.772 13.8999 654.333 13.8384 653.791Z" fill="white"/>
<circle cx="13.5" cy="652.5" r="11.5" stroke="#BB65FF" stroke-width="3"/>
<circle cx="13" cy="372" r="9.5" fill="url(#paint1_linear_178_8536)" stroke="#313031" stroke-width="3"/>
<path d="M10.1777 367.812C10.8711 367.812 11.4131 368.06 11.8037 368.555C12.2692 369.141 12.502 370.112 12.502 371.47C12.502 372.824 12.2676 373.797 11.7988 374.39C11.4115 374.878 10.8711 375.122 10.1777 375.122C9.48112 375.122 8.9196 374.855 8.49316 374.321C8.06673 373.784 7.85352 372.829 7.85352 371.455C7.85352 370.107 8.08789 369.137 8.55664 368.545C8.94401 368.057 9.48438 367.812 10.1777 367.812ZM10.1777 368.95C10.0117 368.95 9.86361 369.004 9.7334 369.111C9.60319 369.215 9.50228 369.404 9.43066 369.678C9.33626 370.033 9.28906 370.63 9.28906 371.47C9.28906 372.31 9.33138 372.887 9.41602 373.203C9.50065 373.516 9.60645 373.724 9.7334 373.828C9.86361 373.932 10.0117 373.984 10.1777 373.984C10.3438 373.984 10.4919 373.932 10.6221 373.828C10.7523 373.721 10.8532 373.53 10.9248 373.257C11.0192 372.905 11.0664 372.31 11.0664 371.47C11.0664 370.63 11.0241 370.054 10.9395 369.741C10.8548 369.425 10.7474 369.215 10.6172 369.111C10.4902 369.004 10.3438 368.95 10.1777 368.95ZM18.0586 373.726V375H13.249C13.3011 374.518 13.4574 374.062 13.7178 373.633C13.9782 373.2 14.4925 372.627 15.2607 371.914C15.8792 371.338 16.2585 370.947 16.3984 370.742C16.5872 370.459 16.6816 370.179 16.6816 369.902C16.6816 369.596 16.5986 369.362 16.4326 369.199C16.2699 369.033 16.0436 368.95 15.7539 368.95C15.4674 368.95 15.2396 369.036 15.0703 369.209C14.901 369.382 14.8034 369.668 14.7773 370.068L13.4102 369.932C13.4915 369.176 13.7471 368.634 14.1768 368.306C14.6064 367.977 15.1436 367.812 15.7881 367.812C16.4945 367.812 17.0495 368.003 17.4531 368.384C17.8568 368.765 18.0586 369.238 18.0586 369.805C18.0586 370.127 18 370.435 17.8828 370.728C17.7689 371.017 17.5866 371.322 17.3359 371.641C17.1699 371.852 16.8704 372.157 16.4375 372.554C16.0046 372.951 15.7295 373.215 15.6123 373.345C15.4984 373.475 15.4056 373.602 15.334 373.726H18.0586Z" fill="white"/>
<circle cx="13" cy="372" r="11.5" stroke="#BB65FF" stroke-width="3"/>
<circle cx="13" cy="95" r="9.5" fill="url(#paint2_linear_178_8536)" stroke="#313031" stroke-width="3"/>
<path d="M10.1777 90.8125C10.8711 90.8125 11.4131 91.0599 11.8037 91.5547C12.2692 92.1406 12.502 93.1123 12.502 94.4697C12.502 95.8239 12.2676 96.7972 11.7988 97.3896C11.4115 97.8779 10.8711 98.1221 10.1777 98.1221C9.48112 98.1221 8.9196 97.8551 8.49316 97.3213C8.06673 96.7842 7.85352 95.8288 7.85352 94.4551C7.85352 93.1074 8.08789 92.1374 8.55664 91.5449C8.94401 91.0566 9.48438 90.8125 10.1777 90.8125ZM10.1777 91.9502C10.0117 91.9502 9.86361 92.0039 9.7334 92.1113C9.60319 92.2155 9.50228 92.4043 9.43066 92.6777C9.33626 93.0326 9.28906 93.6299 9.28906 94.4697C9.28906 95.3096 9.33138 95.8874 9.41602 96.2031C9.50065 96.5156 9.60645 96.724 9.7334 96.8281C9.86361 96.9323 10.0117 96.9844 10.1777 96.9844C10.3438 96.9844 10.4919 96.9323 10.6221 96.8281C10.7523 96.7207 10.8532 96.5303 10.9248 96.2568C11.0192 95.9053 11.0664 95.3096 11.0664 94.4697C11.0664 93.6299 11.0241 93.0537 10.9395 92.7412C10.8548 92.4255 10.7474 92.2155 10.6172 92.1113C10.4902 92.0039 10.3438 91.9502 10.1777 91.9502ZM16.9355 98H15.5635V92.8291C15.0622 93.2979 14.4714 93.6445 13.791 93.8691V92.624C14.1491 92.5068 14.5381 92.2855 14.958 91.96C15.3779 91.6312 15.666 91.2487 15.8223 90.8125H16.9355V98Z" fill="white"/>
<circle cx="13" cy="95" r="11.5" stroke="#BB65FF" stroke-width="3"/>
<defs>
<linearGradient id="paint0_linear_178_8536" x1="22.3" y1="646.45" x2="4.7" y2="658" gradientUnits="userSpaceOnUse">
<stop stop-color="#EE8888"/>
<stop offset="1" stop-color="#BB65FF"/>
</linearGradient>
<linearGradient id="paint1_linear_178_8536" x1="21.8" y1="365.95" x2="4.2" y2="377.5" gradientUnits="userSpaceOnUse">
<stop stop-color="#EE8888"/>
<stop offset="1" stop-color="#BB65FF"/>
</linearGradient>
<linearGradient id="paint2_linear_178_8536" x1="21.8" y1="88.95" x2="4.2" y2="100.5" gradientUnits="userSpaceOnUse">
<stop stop-color="#EE8888"/>
<stop offset="1" stop-color="#BB65FF"/>
</linearGradient>
</defs>
</svg>
