<svg width="1440" height="1099" viewBox="0 0 1440 1099" fill="none" xmlns="http://www.w3.org/2000/svg">
<g clip-path="url(#clip0_156_5508)">
<rect y="5" width="1440" height="953" fill="#212121"/>
<g opacity="0.15">
<g opacity="0.49">
<path opacity="0.49" d="M1440 0H0V960H1440V0Z" fill="url(#paint0_linear_156_5508)"/>
</g>
<path opacity="0.46" d="M1440 0H0V960H1440V0Z" fill="url(#paint1_linear_156_5508)"/>
<path style="mix-blend-mode:multiply" opacity="0.2" d="M1310.36 1046.96C1296 1005.47 1299.84 959.885 1307.52 916.589C1315.2 873.293 1326.34 830.189 1325.76 786.24C1324.8 714.451 1290.39 643.699 1234.21 599.002C1178.04 554.304 1101.12 536.698 1031.19 552.922C987.034 563.213 945.408 586.214 900.038 588.077C853.459 589.997 809.203 569.414 763.354 561.005C654.49 541.018 537.811 595.795 476.909 688.205C416.006 780.614 410.208 904.57 454.79 1005.87C499.373 1107.17 590.765 1184.89 695.424 1220.91C800.083 1256.93 916.589 1252.72 1021.57 1217.72C1073.07 1200.56 1122.09 1176.27 1174.31 1161.47C1226.53 1146.66 1284.19 1142.04 1333.8 1164L1405.9 1125.95C1361.95 1124.76 1324.8 1088.47 1310.36 1046.96Z" fill="url(#paint2_linear_156_5508)"/>
<g style="mix-blend-mode:multiply" opacity="0.2">
<path d="M447.053 1293.66C432.576 1252.17 436.55 1206.59 444.211 1163.29C451.872 1119.99 463.027 1076.89 462.432 1032.94C461.472 961.152 427.066 890.4 370.886 845.702C314.707 801.005 237.811 783.398 167.885 799.622C123.725 809.914 82.08 832.896 36.7296 834.778C-9.84962 836.698 -54.1056 816.115 -99.9552 807.706C-208.819 787.718 -325.498 842.496 -386.419 934.906C-447.341 1027.32 -453.12 1151.31 -408.538 1252.61C-363.955 1353.91 -272.544 1431.63 -167.885 1467.65C-63.2256 1503.67 53.2608 1499.52 158.266 1464.4C209.76 1447.26 258.778 1422.97 310.982 1408.17C363.187 1393.36 420.864 1388.74 470.496 1410.7L542.592 1372.65C498.643 1371.46 461.51 1335.17 447.053 1293.66Z" fill="#474644"/>
</g>
<g style="mix-blend-mode:multiply" opacity="0.2">
<path d="M1637.36 -16.128C1622.9 -57.6384 1626.87 -103.219 1634.52 -146.515C1642.16 -189.811 1653.33 -232.915 1652.76 -276.864C1651.8 -348.653 1617.39 -419.405 1561.21 -464.102C1505.03 -508.8 1428.12 -526.406 1358.19 -510.182C1314.03 -499.891 1272.4 -476.89 1227.03 -475.027C1180.45 -473.107 1136.2 -493.69 1090.35 -502.099C981.504 -522.048 864.806 -467.27 803.904 -374.861C743.002 -282.451 737.28 -158.496 781.786 -57.1968C826.291 44.1024 917.76 121.824 1022.42 157.805C1127.08 193.786 1243.58 189.619 1348.57 154.618C1400.06 137.453 1449.08 113.165 1501.31 98.3616C1553.53 83.5584 1611.19 78.9312 1660.8 100.896L1732.9 62.8416C1688.95 61.6512 1651.83 25.3632 1637.36 -16.128Z" fill="#474543"/>
</g>
<g style="mix-blend-mode:multiply" opacity="0.2">
<path d="M951.974 0C943.966 48.6281 924.083 94.5288 894.086 133.632C834.566 210.125 736.09 254.592 639.418 248.256C629.146 247.584 618.797 246.336 608.41 245.03C554.112 237.754 498.778 224.467 450.067 247.162C408.71 266.362 382.272 307.738 344.947 333.946C296.122 368.218 230.4 373.824 173.606 355.546C116.813 337.267 68.7168 297.082 33.5616 248.87C21.408 232.205 10.656 214.541 0 196.819V0H951.974Z" fill="#474543"/>
</g>
<path style="mix-blend-mode:overlay" d="M1169.72 0C1157.69 11.3164 1143.6 20.2254 1128.21 26.2464C1100.16 37.0944 1068.54 39.168 1043.08 55.1616C1009.54 76.2816 993.946 116.736 985.478 155.405C977.011 194.074 973.229 234.816 954.24 269.53C914.726 341.549 816.48 366.298 738.586 340.205C686.746 322.81 643.411 287.75 608.486 245.03C591.073 223.532 575.613 200.523 562.291 176.275C532.262 122.035 510.24 62.304 469.056 15.9744C464.02 10.3299 458.647 4.99531 452.966 0L1169.72 0Z" fill="url(#paint3_linear_156_5508)"/>
<path style="mix-blend-mode:overlay" opacity="0.82" d="M1440 471.955V960H737.626C739.928 939.36 744.315 919.007 750.72 899.251C773.303 831.619 819.288 774.27 880.397 737.53C912.202 718.279 947.767 706.075 984.691 701.741C1032.94 696.346 1087.33 702.854 1124.52 671.654C1146.97 652.8 1157.76 624.192 1171.78 598.541C1211.48 525.485 1286.27 469.594 1369.19 463.718C1393.1 462.128 1417.1 464.919 1440 471.955Z" fill="url(#paint4_linear_156_5508)"/>
<path style="mix-blend-mode:soft-light" d="M1242.74 960H309.754C312.666 933.625 319.071 907.754 328.8 883.066C351.302 825.619 396.307 770.88 457.44 762.106C483.782 758.266 509.664 763.45 534.72 772.743C552.237 779.199 571.322 780.081 589.36 775.269C607.398 770.457 623.508 760.186 635.482 745.862C660.389 715.924 695.201 695.904 733.604 689.433C772.007 682.962 811.457 690.469 844.8 710.592C857.487 718.444 869.428 727.441 880.474 737.472C912.538 765.735 941.357 798.797 981.734 811.085C1023.72 823.815 1069.61 811.085 1112.64 819.629C1175.71 832.243 1222.08 889.767 1240.38 951.437C1241.22 954.279 1242.01 957.133 1242.74 960Z" fill="url(#paint5_linear_156_5508)"/>
<g style="mix-blend-mode:overlay" opacity="0.4">
<path d="M201.075 442.682C209.045 407.434 186.931 372.399 151.682 364.43C116.434 356.461 81.3993 378.574 73.4299 413.823C65.4605 449.071 87.5744 484.106 122.823 492.075C158.071 500.045 193.106 477.931 201.075 442.682Z" fill="#232221"/>
</g>
<g style="mix-blend-mode:overlay">
<path d="M1162.13 514.066C1171.42 505.843 1172.28 491.646 1164.06 482.356C1155.84 473.065 1141.64 472.199 1132.35 480.422C1123.06 488.644 1122.19 502.841 1130.42 512.132C1138.64 521.422 1152.84 522.288 1162.13 514.066Z" fill="#232221"/>
</g>
<g style="mix-blend-mode:overlay">
<path d="M198.49 761.338C198.49 763.559 197.831 765.731 196.597 767.578C195.363 769.425 193.608 770.865 191.556 771.715C189.504 772.565 187.245 772.787 185.066 772.354C182.888 771.921 180.886 770.851 179.315 769.28C177.745 767.709 176.675 765.708 176.241 763.529C175.808 761.35 176.031 759.092 176.881 757.039C177.731 754.987 179.17 753.233 181.017 751.999C182.865 750.764 185.036 750.106 187.258 750.106C190.237 750.106 193.093 751.289 195.2 753.396C197.306 755.502 198.49 758.359 198.49 761.338V761.338Z" fill="#232221"/>
</g>
<g style="mix-blend-mode:overlay" opacity="0.6">
<path d="M137 364C137 367.758 135.886 371.431 133.798 374.556C131.71 377.68 128.743 380.116 125.271 381.554C121.799 382.992 117.979 383.368 114.293 382.635C110.608 381.902 107.222 380.092 104.565 377.435C101.908 374.778 100.098 371.392 99.3651 367.707C98.632 364.021 99.0082 360.201 100.446 356.729C101.884 353.257 104.32 350.29 107.444 348.202C110.569 346.114 114.242 345 118 345C123.039 345 127.872 347.002 131.435 350.565C134.998 354.128 137 358.961 137 364V364Z" fill="#232221"/>
</g>
<g style="mix-blend-mode:overlay">
<path d="M1265.28 410.093C1265.28 412.314 1264.62 414.486 1263.39 416.333C1262.15 418.18 1260.4 419.62 1258.35 420.47C1256.29 421.32 1254.04 421.542 1251.86 421.109C1249.68 420.676 1247.68 419.606 1246.11 418.035C1244.53 416.464 1243.47 414.463 1243.03 412.284C1242.6 410.105 1242.82 407.847 1243.67 405.795C1244.52 403.742 1245.96 401.988 1247.81 400.754C1249.65 399.52 1251.83 398.861 1254.05 398.861C1257.03 398.861 1259.88 400.044 1261.99 402.151C1264.1 404.257 1265.28 407.114 1265.28 410.093Z" fill="#232221"/>
</g>
<path d="M170.304 -23.3472C250.099 -23.4432 329.203 13.3056 380.602 74.3616C425.165 127.315 448.128 194.938 486.355 252.614C524.582 310.291 589.152 360.902 657.235 348.23C703.949 339.533 741.082 302.285 763.047 260.141C785.011 217.997 794.515 170.726 806.285 124.685C818.054 78.6432 832.992 31.9104 863.424 -4.58883C902.016 -50.8416 964.666 -75.8016 1024.49 -68.7552" stroke="black" stroke-width="0.25" stroke-miterlimit="10"/>
<path d="M197.03 -26.2656C234.538 -26.0612 271.562 -17.7786 305.582 -1.98138C339.601 13.8158 369.818 36.7567 394.176 65.28C435.955 114.912 457.536 178.291 493.306 232.32C529.075 286.349 589.67 333.83 653.453 321.946C697.248 313.786 732.038 278.861 752.64 239.386C773.242 199.91 782.15 155.558 793.171 112.416C804.192 69.2736 818.131 25.44 846.739 -8.77441C882.912 -52.128 941.645 -75.5328 997.728 -68.928" stroke="black" stroke-width="0.25" stroke-miterlimit="10"/>
<path d="M223.757 -29.184C258.763 -28.9915 293.317 -21.2565 325.065 -6.50585C356.812 8.24478 385.008 29.6645 407.731 56.2944C446.726 102.624 466.81 161.779 500.256 212.256C533.702 262.733 590.189 306.97 649.709 295.891C690.566 288.211 723.053 255.686 742.272 218.822C761.491 181.958 769.805 140.602 780.096 100.32C790.387 60.0384 803.462 19.1616 830.016 -12.768C847.151 -32.8989 868.946 -48.5371 893.505 -58.3217C918.063 -68.1063 944.641 -71.7408 970.925 -68.9088" stroke="black" stroke-width="0.25" stroke-miterlimit="10"/>
<path d="M250.483 -32.1024C282.997 -31.9312 315.092 -24.7523 344.581 -11.055C374.07 2.64227 400.259 22.536 421.363 47.2704C457.498 90.24 476.16 145.21 507.206 192C538.253 238.79 590.707 279.955 645.965 269.664C683.904 262.598 714.067 232.339 731.904 198.106C749.741 163.872 757.478 125.472 767.04 88.0896C776.602 50.7072 788.717 12.7872 813.446 -16.8576C829.36 -35.5432 849.597 -50.0594 872.397 -59.1441C895.198 -68.2288 919.872 -71.6072 944.275 -68.9856" stroke="black" stroke-width="0.25" stroke-miterlimit="10"/>
<path d="M277.21 -35.0016C307.208 -34.8399 336.819 -28.2131 364.024 -15.5728C391.23 -2.93252 415.391 15.4242 434.861 38.2464C468.288 77.9328 485.491 128.621 514.157 171.878C542.822 215.136 591.206 253.056 642.221 243.552C677.242 237.024 705.082 209.088 721.536 177.504C737.99 145.92 745.133 110.477 753.965 75.9552C762.797 41.4336 773.971 6.41279 796.8 -20.9472C811.48 -38.2059 830.154 -51.6164 851.199 -60.0121C872.243 -68.4078 895.02 -71.5345 917.549 -69.12" stroke="black" stroke-width="0.25" stroke-miterlimit="10"/>
<path d="M587.52 1099.28C574.31 1051.08 564.672 998.554 583.142 952.128C607.334 891.302 674.438 857.222 739.43 849.427C804.422 841.632 869.875 854.515 935.155 859.488C1000.44 864.461 1070.34 860.141 1124.16 822.854C1198.77 771.13 1223.27 670.33 1290.6 609.408C1346.75 558.624 1431.49 541.882 1502.73 567.495" stroke="black" stroke-width="0.25" stroke-miterlimit="10"/>
<path d="M636.979 1099.28C624.48 1053.68 615.379 1004.01 632.832 960.077C655.718 902.477 719.232 870.298 780.672 862.925C842.112 855.552 904.09 867.84 965.76 872.429C1027.43 877.018 1093.65 873.062 1144.55 837.869C1215.13 788.928 1238.3 693.581 1301.99 635.942C1355.12 587.942 1435.28 572.064 1502.67 596.294" stroke="black" stroke-width="0.25" stroke-miterlimit="10"/>
<path d="M686.419 1099.28C674.65 1056.29 666.048 1009.44 682.579 968.025C704.141 913.766 764.006 883.373 821.971 876.422C879.936 869.472 938.323 880.953 996.557 885.389C1054.79 889.824 1117.13 885.984 1165.13 852.749C1231.7 806.669 1253.45 716.717 1313.59 662.381C1363.68 617.069 1439.27 602.131 1502.8 624.979" stroke="black" stroke-width="0.25" stroke-miterlimit="10"/>
<path d="M735.859 1099.28C724.8 1058.96 716.659 1014.8 732.192 975.974C752.467 924.998 808.685 896.448 863.155 889.92C917.626 883.392 972.461 894.183 1027.16 898.349C1081.86 902.515 1140.44 898.906 1185.52 867.629C1248.06 824.295 1268.58 739.814 1324.99 688.781C1372.03 646.215 1443.05 632.179 1502.75 653.664" stroke="black" stroke-width="0.25" stroke-miterlimit="10"/>
<path d="M785.28 1099.28C774.931 1061.49 767.385 1020.33 781.843 983.923C800.813 936.23 853.421 909.523 904.377 903.417C955.334 897.312 1006.64 907.411 1057.8 911.289C1108.97 915.168 1163.79 911.827 1205.95 882.585C1264.45 842.035 1283.65 763.008 1336.51 715.257C1380.48 675.437 1446.91 662.4 1502.75 682.406" stroke="black" stroke-width="0.25" stroke-miterlimit="10"/>
<path d="M-14.2656 383.29C-23.8656 416.87 -6.73918 453.158 18.144 477.658C43.0272 502.157 74.8992 517.978 104.16 537.062C133.421 556.147 161.76 580.397 172.819 613.517C192.518 672.442 152.294 732.422 133.114 791.52C104.083 880.934 126.701 985.19 190.176 1054.56" stroke="black" stroke-width="0.25" stroke-miterlimit="10"/>
<path d="M-37.0368 390.221C-46.6368 423.802 -29.5104 460.07 -4.62721 484.57C20.256 509.069 52.1088 524.89 81.3888 543.974C110.669 563.059 138.989 587.328 150.048 620.448C169.747 679.373 129.523 739.354 110.342 798.451C81.312 887.866 103.93 992.122 167.405 1061.49" stroke="black" stroke-width="0.25" stroke-miterlimit="10"/>
<path d="M-59.8272 397.152C-69.4272 430.714 -52.3008 467.002 -27.3984 491.501C-2.49603 516 29.3376 531.821 58.6176 550.906C87.8976 569.99 116.218 594.259 127.258 627.379C146.976 686.304 106.733 746.285 87.552 805.382C58.5408 894.797 81.1584 999.053 144.614 1068.42" stroke="black" stroke-width="0.25" stroke-miterlimit="10"/>
<path d="M-82.56 404.083C-92.16 437.645 -75.0336 473.933 -50.1504 498.432C-25.2672 522.931 6.6048 538.752 35.8656 557.837C65.1264 576.922 93.4656 601.19 104.525 634.31C124.224 693.235 84 753.216 64.8192 812.314C35.7504 901.728 58.368 1006.08 121.843 1075.33" stroke="black" stroke-width="0.25" stroke-miterlimit="10"/>
<path d="M1105.59 -358.771C1110.47 -324.211 1140.94 -298.042 1173.64 -285.811C1206.34 -273.581 1241.91 -272.064 1276.4 -266.611C1310.88 -261.158 1346.63 -250.483 1370.25 -224.755C1412.26 -178.944 1399.95 -107.789 1406.5 -46.08C1416.42 47.424 1479.55 133.402 1565.86 170.88" stroke="black" stroke-width="0.25" stroke-miterlimit="10"/>
<path d="M1087.62 -343.162C1092.5 -308.602 1122.95 -282.432 1155.67 -270.202C1188.38 -257.971 1223.92 -256.454 1258.43 -251.002C1292.93 -245.549 1328.66 -234.874 1352.28 -209.146C1394.27 -163.334 1381.96 -92.16 1388.52 -30.3936C1398.45 63.1104 1461.48 149.088 1547.79 186.566" stroke="black" stroke-width="0.25" stroke-miterlimit="10"/>
<path d="M1069.65 -327.552C1074.51 -292.992 1104.98 -266.822 1137.68 -254.592C1170.37 -242.362 1205.95 -240.845 1240.44 -235.392C1274.92 -229.939 1310.69 -219.264 1334.28 -193.536C1376.29 -147.744 1363.99 -76.5888 1370.53 -14.8032C1380.46 78.6816 1443.49 164.678 1529.89 202.157" stroke="black" stroke-width="0.25" stroke-miterlimit="10"/>
<path d="M1051.66 -311.942C1056.54 -277.382 1086.99 -251.213 1119.71 -238.982C1152.42 -226.752 1187.96 -225.235 1222.46 -219.782C1256.97 -214.33 1292.7 -203.674 1316.31 -177.926C1358.3 -132.115 1345.92 -60.96 1352.56 0.825598C1362.49 94.3104 1425.52 180.307 1511.83 217.786" stroke="black" stroke-width="0.25" stroke-miterlimit="10"/>
<path d="M1201.17 186.08L1230.1 157.156C1224.96 160.094 1220.2 163.601 1215.88 167.587L1211.6 171.865C1207.62 176.163 1204.11 180.937 1201.17 186.08Z" fill="#9F30B1"/>
<path d="M1192.54 209.072L1253.09 148.524C1251.42 148.855 1249.77 149.259 1248.13 149.699L1193.72 204.113C1193.26 205.748 1192.87 207.401 1192.54 209.072Z" fill="#9F30B1"/>
<path d="M1191 224.461C1191 224.626 1191 224.792 1191 224.957L1268.96 147C1268.79 147 1268.63 147 1268.46 147C1267.34 147 1266.22 147.037 1265.1 147.073L1191.07 221.1C1191.04 222.221 1191 223.323 1191 224.461Z" fill="#9F30B1"/>
<path d="M1192.21 238.106L1282.14 148.175C1281.06 147.992 1279.96 147.808 1278.87 147.661L1191.72 234.819C1191.84 235.939 1192.01 237.022 1192.21 238.106Z" fill="#9F30B1"/>
<path d="M1195.15 249.529L1293.55 151.132C1292.59 150.801 1291.64 150.508 1290.68 150.214L1194.25 246.645C1194.53 247.619 1194.82 248.574 1195.15 249.529Z" fill="#9F30B1"/>
<path d="M1199.43 259.611L1303.65 155.393C1302.8 154.97 1301.96 154.548 1301.09 154.162L1198.18 257.058C1198.58 257.921 1198.99 258.766 1199.43 259.611Z" fill="#9F30B1"/>
<path d="M1204.79 268.591L1312.61 160.773C1311.86 160.259 1311.1 159.745 1310.35 159.249L1203.29 266.314C1203.78 267.085 1204.28 267.838 1204.79 268.591Z" fill="#9F30B1"/>
<path d="M1211.16 276.579L1320.6 167.146C1319.94 166.54 1319.26 165.952 1318.58 165.383L1209.38 274.578C1209.97 275.257 1210.56 275.918 1211.16 276.579Z" fill="#9F30B1"/>
<path d="M1218.47 283.631L1327.65 174.455C1327.08 173.775 1326.49 173.096 1325.89 172.435L1216.45 281.868C1217.11 282.474 1217.79 283.062 1218.47 283.631Z" fill="#9F30B1"/>
<path d="M1226.74 289.728L1333.76 182.7C1333.27 181.929 1332.77 181.176 1332.24 180.442L1224.46 288.222C1225.21 288.737 1225.97 289.251 1226.74 289.728Z" fill="#9F30B1"/>
<path d="M1236.01 294.815L1338.83 191.993C1338.43 191.13 1338.03 190.285 1337.6 189.44L1233.46 293.585C1234.3 294.007 1235.15 294.411 1236.01 294.815Z" fill="#9F30B1"/>
<path d="M1246.44 298.745L1342.78 202.424C1342.49 201.451 1342.19 200.496 1341.88 199.559L1243.58 297.864C1244.51 298.158 1245.47 298.451 1246.44 298.745Z" fill="#9F30B1"/>
<path d="M1258.27 301.261L1345.28 214.25C1345.13 213.149 1344.97 212.065 1344.78 210.963L1255 300.747C1256.08 300.949 1257.17 301.114 1258.27 301.261Z" fill="#9F30B1"/>
<path d="M1268.48 301.941C1269.67 301.941 1270.87 301.904 1272.04 301.849L1345.87 228.024C1345.92 226.848 1345.96 225.655 1345.96 224.461C1345.96 224.369 1345.96 224.259 1345.96 224.167L1268.2 301.922C1268.28 301.922 1268.39 301.941 1268.48 301.941Z" fill="#9F30B1"/>
<path d="M1289.1 299.149L1343.17 245.084C1343.63 243.45 1344.03 241.779 1344.36 240.108L1284.11 300.361C1285.8 300.012 1287.47 299.608 1289.1 299.149Z" fill="#9F30B1"/>
<path d="M1335.51 263.32L1307.34 291.491C1319 284.715 1328.73 274.982 1335.51 263.32Z" fill="#9F30B1"/>
<path d="M567.73 484.35L494.975 484.357" stroke="black" stroke-opacity="0.64" stroke-width="2" stroke-miterlimit="10"/>
<path d="M558.742 475.362L485.981 475.362" stroke="black" stroke-opacity="0.64" stroke-width="2" stroke-miterlimit="10"/>
<path d="M549.748 466.368L476.994 466.375" stroke="black" stroke-opacity="0.64" stroke-width="2" stroke-miterlimit="10"/>
<path d="M540.76 457.381H467.999" stroke="black" stroke-opacity="0.64" stroke-width="2" stroke-miterlimit="10"/>
<path d="M1078 725L1103.33 755L1128.65 725L1153.98 755L1179.31 725L1204.65 755L1230 725" stroke="#868686" stroke-width="4" stroke-miterlimit="10"/>
<path d="M1078 685L1103.33 715L1128.65 685L1153.98 715L1179.31 685L1204.65 715L1230 685" stroke="#868686" stroke-width="4" stroke-miterlimit="10"/>
<path d="M949.609 556.614L915.614 590.591" stroke="black" stroke-miterlimit="10"/>
<path d="M949.609 590.591L915.614 556.614" stroke="black" stroke-miterlimit="10"/>
<path d="M1000.6 556.614L966.605 590.591" stroke="black" stroke-miterlimit="10"/>
<path d="M1000.6 590.591L966.605 556.614" stroke="black" stroke-miterlimit="10"/>
<path d="M1051.59 556.614L1017.6 590.591" stroke="black" stroke-miterlimit="10"/>
<path d="M1051.59 590.591L1017.6 556.614" stroke="black" stroke-miterlimit="10"/>
</g>
<path d="M-137.5 119.633C-134.212 114.485 -129.065 109.334 -122.3 104.229L1.27209 -21L1481 -13.9683C1476.46 -10.7873 1443.22 28.4633 1315.07 55.8462C1188 83 1075.86 99.543 889.5 90C703.135 80.457 485.167 14.1584 288.362 14.1584C139.645 14.1584 -59.9821 57.2089 -122.3 104.229L-137.5 119.633Z" fill="#212121"/>
<rect x="-1" y="957" width="1441" height="142" fill="#212121"/>
<rect y="829.494" width="1440" height="130.506" fill="url(#paint6_linear_156_5508)"/>
</g>
<defs>
<linearGradient id="paint0_linear_156_5508" x1="717.312" y1="896.39" x2="722.419" y2="105.35" gradientUnits="userSpaceOnUse">
<stop stop-color="#E269FF"/>
<stop offset="1" stop-color="#383838"/>
</linearGradient>
<linearGradient id="paint1_linear_156_5508" x1="720" y1="0" x2="720" y2="960" gradientUnits="userSpaceOnUse">
<stop stop-color="#F7FFFF"/>
<stop offset="1" stop-color="#E3DBDB"/>
</linearGradient>
<linearGradient id="paint2_linear_156_5508" x1="1290.49" y1="626.515" x2="523.776" y2="1221.72" gradientUnits="userSpaceOnUse">
<stop stop-color="#D1D5DE"/>
<stop offset="1"/>
</linearGradient>
<linearGradient id="paint3_linear_156_5508" x1="452.966" y1="175.162" x2="1169.72" y2="175.162" gradientUnits="userSpaceOnUse">
<stop stop-color="#FF50F9" stop-opacity="0.4"/>
<stop offset="1"/>
</linearGradient>
<linearGradient id="paint4_linear_156_5508" x1="737.626" y1="711.629" x2="1440" y2="711.629" gradientUnits="userSpaceOnUse">
<stop stop-color="#F450F9"/>
<stop offset="1"/>
</linearGradient>
<linearGradient id="paint5_linear_156_5508" x1="309.754" y1="823.776" x2="1242.74" y2="823.776" gradientUnits="userSpaceOnUse">
<stop stop-color="#D1D5DE"/>
<stop offset="1" stop-color="#DBDBDB"/>
</linearGradient>
<linearGradient id="paint6_linear_156_5508" x1="720" y1="829.494" x2="720" y2="960" gradientUnits="userSpaceOnUse">
<stop stop-color="#212121" stop-opacity="0"/>
<stop offset="1" stop-color="#212121"/>
</linearGradient>
<clipPath id="clip0_156_5508">
<rect width="1440" height="1099" fill="white"/>
</clipPath>
</defs>
</svg>
