<svg width="326" height="400" viewBox="0 0 326 400" fill="none" xmlns="http://www.w3.org/2000/svg">
<g opacity="0.19">
<rect width="6.27027" height="6.25" fill="#EE8888"/>
<rect y="18.75" width="6.27027" height="6.25" fill="#EE8888"/>
<rect y="37.5" width="6.27027" height="6.25" fill="#EE8888"/>
<rect y="56.25" width="6.27027" height="6.25" fill="#EE8888"/>
<rect y="75" width="6.27027" height="6.25" fill="#EE8888"/>
<rect y="93.75" width="6.27027" height="6.25" fill="#EE8888"/>
<rect y="112.5" width="6.27027" height="6.25" fill="#EE8888"/>
<rect y="131.25" width="6.27027" height="6.25" fill="#EE8888"/>
<rect y="150" width="6.27027" height="6.25" fill="#EE8888"/>
<rect y="168.75" width="6.27027" height="6.25" fill="#EE8888"/>
<rect y="187.5" width="6.27027" height="6.25" fill="#EE8888"/>
<rect y="206.25" width="6.27027" height="6.25" fill="#EE8888"/>
<rect y="225" width="6.27027" height="6.25" fill="#EE8888"/>
<rect y="243.75" width="6.27027" height="6.25" fill="#EE8888"/>
<rect y="262.5" width="6.27027" height="6.25" fill="#EE8888"/>
<rect y="281.25" width="6.27027" height="6.25" fill="#EE8888"/>
<rect y="300" width="6.27027" height="6.25" fill="#EE8888"/>
<rect y="318.75" width="6.27027" height="6.25" fill="#EE8888"/>
<rect y="337.5" width="6.27027" height="6.25" fill="#EE8888"/>
<rect y="356.25" width="6.27027" height="6.25" fill="#EE8888"/>
<rect y="375" width="6.27027" height="6.25" fill="#EE8888"/>
<rect y="393.75" width="6.27027" height="6.25" fill="#EE8888"/>
<rect x="18.8108" width="6.27027" height="6.25" fill="#EE8888"/>
<rect x="18.8108" y="18.75" width="6.27027" height="6.25" fill="#EE8888"/>
<rect x="18.8108" y="37.5" width="6.27027" height="6.25" fill="#EE8888"/>
<rect x="18.8108" y="56.25" width="6.27027" height="6.25" fill="#EE8888"/>
<rect x="18.8108" y="75" width="6.27027" height="6.25" fill="#EE8888"/>
<rect x="18.8108" y="93.75" width="6.27027" height="6.25" fill="#EE8888"/>
<rect x="18.8108" y="112.5" width="6.27027" height="6.25" fill="#EE8888"/>
<rect x="18.8108" y="131.25" width="6.27027" height="6.25" fill="#EE8888"/>
<rect x="18.8108" y="150" width="6.27027" height="6.25" fill="#EE8888"/>
<rect x="18.8108" y="168.75" width="6.27027" height="6.25" fill="#EE8888"/>
<rect x="18.8108" y="187.5" width="6.27027" height="6.25" fill="#EE8888"/>
<rect x="18.8108" y="206.25" width="6.27027" height="6.25" fill="#EE8888"/>
<rect x="18.8108" y="225" width="6.27027" height="6.25" fill="#EE8888"/>
<rect x="18.8108" y="243.75" width="6.27027" height="6.25" fill="#EE8888"/>
<rect x="18.8108" y="262.5" width="6.27027" height="6.25" fill="#EE8888"/>
<rect x="18.8108" y="281.25" width="6.27027" height="6.25" fill="#EE8888"/>
<rect x="18.8108" y="300" width="6.27027" height="6.25" fill="#EE8888"/>
<rect x="18.8108" y="318.75" width="6.27027" height="6.25" fill="#EE8888"/>
<rect x="18.8108" y="337.5" width="6.27027" height="6.25" fill="#EE8888"/>
<rect x="18.8108" y="356.25" width="6.27027" height="6.25" fill="#EE8888"/>
<rect x="18.8108" y="375" width="6.27027" height="6.25" fill="#EE8888"/>
<rect x="18.8108" y="393.75" width="6.27027" height="6.25" fill="#EE8888"/>
<rect x="37.6216" width="6.27027" height="6.25" fill="#EE8888"/>
<rect x="37.6216" y="18.75" width="6.27027" height="6.25" fill="#EE8888"/>
<rect x="37.6216" y="37.5" width="6.27027" height="6.25" fill="#EE8888"/>
<rect x="37.6216" y="56.25" width="6.27027" height="6.25" fill="#EE8888"/>
<rect x="37.6216" y="75" width="6.27027" height="6.25" fill="#EE8888"/>
<rect x="37.6216" y="93.75" width="6.27027" height="6.25" fill="#EE8888"/>
<rect x="37.6216" y="112.5" width="6.27027" height="6.25" fill="#EE8888"/>
<rect x="37.6216" y="131.25" width="6.27027" height="6.25" fill="#EE8888"/>
<rect x="37.6216" y="150" width="6.27027" height="6.25" fill="#EE8888"/>
<rect x="37.6216" y="168.75" width="6.27027" height="6.25" fill="#EE8888"/>
<rect x="37.6216" y="187.5" width="6.27027" height="6.25" fill="#EE8888"/>
<rect x="37.6216" y="206.25" width="6.27027" height="6.25" fill="#EE8888"/>
<rect x="37.6216" y="225" width="6.27027" height="6.25" fill="#EE8888"/>
<rect x="37.6216" y="243.75" width="6.27027" height="6.25" fill="#EE8888"/>
<rect x="37.6216" y="262.5" width="6.27027" height="6.25" fill="#EE8888"/>
<rect x="37.6216" y="281.25" width="6.27027" height="6.25" fill="#EE8888"/>
<rect x="37.6216" y="300" width="6.27027" height="6.25" fill="#EE8888"/>
<rect x="37.6216" y="318.75" width="6.27027" height="6.25" fill="#EE8888"/>
<rect x="37.6216" y="337.5" width="6.27027" height="6.25" fill="#EE8888"/>
<rect x="37.6216" y="356.25" width="6.27027" height="6.25" fill="#EE8888"/>
<rect x="37.6216" y="375" width="6.27027" height="6.25" fill="#EE8888"/>
<rect x="37.6216" y="393.75" width="6.27027" height="6.25" fill="#EE8888"/>
<rect x="56.4324" width="6.27028" height="6.25" fill="#EE8888"/>
<rect x="56.4324" y="18.75" width="6.27028" height="6.25" fill="#EE8888"/>
<rect x="56.4324" y="37.5" width="6.27028" height="6.25" fill="#EE8888"/>
<rect x="56.4324" y="56.25" width="6.27028" height="6.25" fill="#EE8888"/>
<rect x="56.4324" y="75" width="6.27028" height="6.25" fill="#EE8888"/>
<rect x="56.4324" y="93.75" width="6.27028" height="6.25" fill="#EE8888"/>
<rect x="56.4324" y="112.5" width="6.27028" height="6.25" fill="#EE8888"/>
<rect x="56.4324" y="131.25" width="6.27028" height="6.25" fill="#EE8888"/>
<rect x="56.4324" y="150" width="6.27028" height="6.25" fill="#EE8888"/>
<rect x="56.4324" y="168.75" width="6.27028" height="6.25" fill="#EE8888"/>
<rect x="56.4324" y="187.5" width="6.27028" height="6.25" fill="#EE8888"/>
<rect x="56.4324" y="206.25" width="6.27028" height="6.25" fill="#EE8888"/>
<rect x="56.4324" y="225" width="6.27028" height="6.25" fill="#EE8888"/>
<rect x="56.4324" y="243.75" width="6.27028" height="6.25" fill="#EE8888"/>
<rect x="56.4324" y="262.5" width="6.27028" height="6.25" fill="#EE8888"/>
<rect x="56.4324" y="281.25" width="6.27028" height="6.25" fill="#EE8888"/>
<rect x="56.4324" y="300" width="6.27028" height="6.25" fill="#EE8888"/>
<rect x="56.4324" y="318.75" width="6.27028" height="6.25" fill="#EE8888"/>
<rect x="56.4324" y="337.5" width="6.27028" height="6.25" fill="#EE8888"/>
<rect x="56.4324" y="356.25" width="6.27028" height="6.25" fill="#EE8888"/>
<rect x="56.4324" y="375" width="6.27028" height="6.25" fill="#EE8888"/>
<rect x="56.4324" y="393.75" width="6.27028" height="6.25" fill="#EE8888"/>
<rect x="75.2433" width="6.27026" height="6.25" fill="#EE8888"/>
<rect x="75.2433" y="18.75" width="6.27026" height="6.25" fill="#EE8888"/>
<rect x="75.2433" y="37.5" width="6.27026" height="6.25" fill="#EE8888"/>
<rect x="75.2433" y="56.25" width="6.27026" height="6.25" fill="#EE8888"/>
<rect x="75.2433" y="75" width="6.27026" height="6.25" fill="#EE8888"/>
<rect x="75.2433" y="93.75" width="6.27026" height="6.25" fill="#EE8888"/>
<rect x="75.2433" y="112.5" width="6.27026" height="6.25" fill="#EE8888"/>
<rect x="75.2433" y="131.25" width="6.27026" height="6.25" fill="#EE8888"/>
<rect x="75.2433" y="150" width="6.27026" height="6.25" fill="#EE8888"/>
<rect x="75.2433" y="168.75" width="6.27026" height="6.25" fill="#EE8888"/>
<rect x="75.2433" y="187.5" width="6.27026" height="6.25" fill="#EE8888"/>
<rect x="75.2433" y="206.25" width="6.27026" height="6.25" fill="#EE8888"/>
<rect x="75.2433" y="225" width="6.27026" height="6.25" fill="#EE8888"/>
<rect x="75.2433" y="243.75" width="6.27026" height="6.25" fill="#EE8888"/>
<rect x="75.2433" y="262.5" width="6.27026" height="6.25" fill="#EE8888"/>
<rect x="75.2433" y="281.25" width="6.27026" height="6.25" fill="#EE8888"/>
<rect x="75.2433" y="300" width="6.27026" height="6.25" fill="#EE8888"/>
<rect x="75.2433" y="318.75" width="6.27026" height="6.25" fill="#EE8888"/>
<rect x="75.2433" y="337.5" width="6.27026" height="6.25" fill="#EE8888"/>
<rect x="75.2433" y="356.25" width="6.27026" height="6.25" fill="#EE8888"/>
<rect x="75.2433" y="375" width="6.27026" height="6.25" fill="#EE8888"/>
<rect x="75.2433" y="393.75" width="6.27026" height="6.25" fill="#EE8888"/>
<rect x="94.054" width="6.27027" height="6.25" fill="#EE8888"/>
<rect x="94.054" y="18.75" width="6.27027" height="6.25" fill="#EE8888"/>
<rect x="94.054" y="37.5" width="6.27027" height="6.25" fill="#EE8888"/>
<rect x="94.054" y="56.25" width="6.27027" height="6.25" fill="#EE8888"/>
<rect x="94.054" y="75" width="6.27027" height="6.25" fill="#EE8888"/>
<rect x="94.054" y="93.75" width="6.27027" height="6.25" fill="#EE8888"/>
<rect x="94.054" y="112.5" width="6.27027" height="6.25" fill="#EE8888"/>
<rect x="94.054" y="131.25" width="6.27027" height="6.25" fill="#EE8888"/>
<rect x="94.054" y="150" width="6.27027" height="6.25" fill="#EE8888"/>
<rect x="94.054" y="168.75" width="6.27027" height="6.25" fill="#EE8888"/>
<rect x="94.054" y="187.5" width="6.27027" height="6.25" fill="#EE8888"/>
<rect x="94.054" y="206.25" width="6.27027" height="6.25" fill="#EE8888"/>
<rect x="94.054" y="225" width="6.27027" height="6.25" fill="#EE8888"/>
<rect x="94.054" y="243.75" width="6.27027" height="6.25" fill="#EE8888"/>
<rect x="94.054" y="262.5" width="6.27027" height="6.25" fill="#EE8888"/>
<rect x="94.054" y="281.25" width="6.27027" height="6.25" fill="#EE8888"/>
<rect x="94.054" y="300" width="6.27027" height="6.25" fill="#EE8888"/>
<rect x="94.054" y="318.75" width="6.27027" height="6.25" fill="#EE8888"/>
<rect x="94.054" y="337.5" width="6.27027" height="6.25" fill="#EE8888"/>
<rect x="94.054" y="356.25" width="6.27027" height="6.25" fill="#EE8888"/>
<rect x="94.054" y="375" width="6.27027" height="6.25" fill="#EE8888"/>
<rect x="94.054" y="393.75" width="6.27027" height="6.25" fill="#EE8888"/>
<rect x="112.865" width="6.27026" height="6.25" fill="#EE8888"/>
<rect x="112.865" y="18.75" width="6.27026" height="6.25" fill="#EE8888"/>
<rect x="112.865" y="37.5" width="6.27026" height="6.25" fill="#EE8888"/>
<rect x="112.865" y="56.25" width="6.27026" height="6.25" fill="#EE8888"/>
<rect x="112.865" y="75" width="6.27026" height="6.25" fill="#EE8888"/>
<rect x="112.865" y="93.75" width="6.27026" height="6.25" fill="#EE8888"/>
<rect x="112.865" y="112.5" width="6.27026" height="6.25" fill="#EE8888"/>
<rect x="112.865" y="131.25" width="6.27026" height="6.25" fill="#EE8888"/>
<rect x="112.865" y="150" width="6.27026" height="6.25" fill="#EE8888"/>
<rect x="112.865" y="168.75" width="6.27026" height="6.25" fill="#EE8888"/>
<rect x="112.865" y="187.5" width="6.27026" height="6.25" fill="#EE8888"/>
<rect x="112.865" y="206.25" width="6.27026" height="6.25" fill="#EE8888"/>
<rect x="112.865" y="225" width="6.27026" height="6.25" fill="#EE8888"/>
<rect x="112.865" y="243.75" width="6.27026" height="6.25" fill="#EE8888"/>
<rect x="112.865" y="262.5" width="6.27026" height="6.25" fill="#EE8888"/>
<rect x="112.865" y="281.25" width="6.27026" height="6.25" fill="#EE8888"/>
<rect x="112.865" y="300" width="6.27026" height="6.25" fill="#EE8888"/>
<rect x="112.865" y="318.75" width="6.27026" height="6.25" fill="#EE8888"/>
<rect x="112.865" y="337.5" width="6.27026" height="6.25" fill="#EE8888"/>
<rect x="112.865" y="356.25" width="6.27026" height="6.25" fill="#EE8888"/>
<rect x="112.865" y="375" width="6.27026" height="6.25" fill="#EE8888"/>
<rect x="112.865" y="393.75" width="6.27026" height="6.25" fill="#EE8888"/>
<rect x="131.676" width="6.27028" height="6.25" fill="#EE8888"/>
<rect x="131.676" y="18.75" width="6.27028" height="6.25" fill="#EE8888"/>
<rect x="131.676" y="37.5" width="6.27028" height="6.25" fill="#EE8888"/>
<rect x="131.676" y="56.25" width="6.27028" height="6.25" fill="#EE8888"/>
<rect x="131.676" y="75" width="6.27028" height="6.25" fill="#EE8888"/>
<rect x="131.676" y="93.75" width="6.27028" height="6.25" fill="#EE8888"/>
<rect x="131.676" y="112.5" width="6.27028" height="6.25" fill="#EE8888"/>
<rect x="131.676" y="131.25" width="6.27028" height="6.25" fill="#EE8888"/>
<rect x="131.676" y="150" width="6.27028" height="6.25" fill="#EE8888"/>
<rect x="131.676" y="168.75" width="6.27028" height="6.25" fill="#EE8888"/>
<rect x="131.676" y="187.5" width="6.27028" height="6.25" fill="#EE8888"/>
<rect x="131.676" y="206.25" width="6.27028" height="6.25" fill="#EE8888"/>
<rect x="131.676" y="225" width="6.27028" height="6.25" fill="#EE8888"/>
<rect x="131.676" y="243.75" width="6.27028" height="6.25" fill="#EE8888"/>
<rect x="131.676" y="262.5" width="6.27028" height="6.25" fill="#EE8888"/>
<rect x="131.676" y="281.25" width="6.27028" height="6.25" fill="#EE8888"/>
<rect x="131.676" y="300" width="6.27028" height="6.25" fill="#EE8888"/>
<rect x="131.676" y="318.75" width="6.27028" height="6.25" fill="#EE8888"/>
<rect x="131.676" y="337.5" width="6.27028" height="6.25" fill="#EE8888"/>
<rect x="131.676" y="356.25" width="6.27028" height="6.25" fill="#EE8888"/>
<rect x="131.676" y="375" width="6.27028" height="6.25" fill="#EE8888"/>
<rect x="131.676" y="393.75" width="6.27028" height="6.25" fill="#EE8888"/>
<rect x="150.487" width="6.27026" height="6.25" fill="#EE8888"/>
<rect x="150.487" y="18.75" width="6.27026" height="6.25" fill="#EE8888"/>
<rect x="150.487" y="37.5" width="6.27026" height="6.25" fill="#EE8888"/>
<rect x="150.487" y="56.25" width="6.27026" height="6.25" fill="#EE8888"/>
<rect x="150.487" y="75" width="6.27026" height="6.25" fill="#EE8888"/>
<rect x="150.487" y="93.75" width="6.27026" height="6.25" fill="#EE8888"/>
<rect x="150.487" y="112.5" width="6.27026" height="6.25" fill="#EE8888"/>
<rect x="150.487" y="131.25" width="6.27026" height="6.25" fill="#EE8888"/>
<rect x="150.487" y="150" width="6.27026" height="6.25" fill="#EE8888"/>
<rect x="150.487" y="168.75" width="6.27026" height="6.25" fill="#EE8888"/>
<rect x="150.487" y="187.5" width="6.27026" height="6.25" fill="#EE8888"/>
<rect x="150.487" y="206.25" width="6.27026" height="6.25" fill="#EE8888"/>
<rect x="150.487" y="225" width="6.27026" height="6.25" fill="#EE8888"/>
<rect x="150.487" y="243.75" width="6.27026" height="6.25" fill="#EE8888"/>
<rect x="150.487" y="262.5" width="6.27026" height="6.25" fill="#EE8888"/>
<rect x="150.487" y="281.25" width="6.27026" height="6.25" fill="#EE8888"/>
<rect x="150.487" y="300" width="6.27026" height="6.25" fill="#EE8888"/>
<rect x="150.487" y="318.75" width="6.27026" height="6.25" fill="#EE8888"/>
<rect x="150.487" y="337.5" width="6.27026" height="6.25" fill="#EE8888"/>
<rect x="150.487" y="356.25" width="6.27026" height="6.25" fill="#EE8888"/>
<rect x="150.487" y="375" width="6.27026" height="6.25" fill="#EE8888"/>
<rect x="150.487" y="393.75" width="6.27026" height="6.25" fill="#EE8888"/>
<rect x="169.297" width="6.27028" height="6.25" fill="#EE8888"/>
<rect x="169.297" y="18.75" width="6.27028" height="6.25" fill="#EE8888"/>
<rect x="169.297" y="37.5" width="6.27028" height="6.25" fill="#EE8888"/>
<rect x="169.297" y="56.25" width="6.27028" height="6.25" fill="#EE8888"/>
<rect x="169.297" y="75" width="6.27028" height="6.25" fill="#EE8888"/>
<rect x="169.297" y="93.75" width="6.27028" height="6.25" fill="#EE8888"/>
<rect x="169.297" y="112.5" width="6.27028" height="6.25" fill="#EE8888"/>
<rect x="169.297" y="131.25" width="6.27028" height="6.25" fill="#EE8888"/>
<rect x="169.297" y="150" width="6.27028" height="6.25" fill="#EE8888"/>
<rect x="169.297" y="168.75" width="6.27028" height="6.25" fill="#EE8888"/>
<rect x="169.297" y="187.5" width="6.27028" height="6.25" fill="#EE8888"/>
<rect x="169.297" y="206.25" width="6.27028" height="6.25" fill="#EE8888"/>
<rect x="169.297" y="225" width="6.27028" height="6.25" fill="#EE8888"/>
<rect x="169.297" y="243.75" width="6.27028" height="6.25" fill="#EE8888"/>
<rect x="169.297" y="262.5" width="6.27028" height="6.25" fill="#EE8888"/>
<rect x="169.297" y="281.25" width="6.27028" height="6.25" fill="#EE8888"/>
<rect x="169.297" y="300" width="6.27028" height="6.25" fill="#EE8888"/>
<rect x="169.297" y="318.75" width="6.27028" height="6.25" fill="#EE8888"/>
<rect x="169.297" y="337.5" width="6.27028" height="6.25" fill="#EE8888"/>
<rect x="169.297" y="356.25" width="6.27028" height="6.25" fill="#EE8888"/>
<rect x="169.297" y="375" width="6.27028" height="6.25" fill="#EE8888"/>
<rect x="169.297" y="393.75" width="6.27028" height="6.25" fill="#EE8888"/>
<rect x="188.108" width="6.27026" height="6.25" fill="#EE8888"/>
<rect x="188.108" y="18.75" width="6.27026" height="6.25" fill="#EE8888"/>
<rect x="188.108" y="37.5" width="6.27026" height="6.25" fill="#EE8888"/>
<rect x="188.108" y="56.25" width="6.27026" height="6.25" fill="#EE8888"/>
<rect x="188.108" y="75" width="6.27026" height="6.25" fill="#EE8888"/>
<rect x="188.108" y="93.75" width="6.27026" height="6.25" fill="#EE8888"/>
<rect x="188.108" y="112.5" width="6.27026" height="6.25" fill="#EE8888"/>
<rect x="188.108" y="131.25" width="6.27026" height="6.25" fill="#EE8888"/>
<rect x="188.108" y="150" width="6.27026" height="6.25" fill="#EE8888"/>
<rect x="188.108" y="168.75" width="6.27026" height="6.25" fill="#EE8888"/>
<rect x="188.108" y="187.5" width="6.27026" height="6.25" fill="#EE8888"/>
<rect x="188.108" y="206.25" width="6.27026" height="6.25" fill="#EE8888"/>
<rect x="188.108" y="225" width="6.27026" height="6.25" fill="#EE8888"/>
<rect x="188.108" y="243.75" width="6.27026" height="6.25" fill="#EE8888"/>
<rect x="188.108" y="262.5" width="6.27026" height="6.25" fill="#EE8888"/>
<rect x="188.108" y="281.25" width="6.27026" height="6.25" fill="#EE8888"/>
<rect x="188.108" y="300" width="6.27026" height="6.25" fill="#EE8888"/>
<rect x="188.108" y="318.75" width="6.27026" height="6.25" fill="#EE8888"/>
<rect x="188.108" y="337.5" width="6.27026" height="6.25" fill="#EE8888"/>
<rect x="188.108" y="356.25" width="6.27026" height="6.25" fill="#EE8888"/>
<rect x="188.108" y="375" width="6.27026" height="6.25" fill="#EE8888"/>
<rect x="188.108" y="393.75" width="6.27026" height="6.25" fill="#EE8888"/>
<rect x="206.919" width="6.27028" height="6.25" fill="#EE8888"/>
<rect x="206.919" y="18.75" width="6.27028" height="6.25" fill="#EE8888"/>
<rect x="206.919" y="37.5" width="6.27028" height="6.25" fill="#EE8888"/>
<rect x="206.919" y="56.25" width="6.27028" height="6.25" fill="#EE8888"/>
<rect x="206.919" y="75" width="6.27028" height="6.25" fill="#EE8888"/>
<rect x="206.919" y="93.75" width="6.27028" height="6.25" fill="#EE8888"/>
<rect x="206.919" y="112.5" width="6.27028" height="6.25" fill="#EE8888"/>
<rect x="206.919" y="131.25" width="6.27028" height="6.25" fill="#EE8888"/>
<rect x="206.919" y="150" width="6.27028" height="6.25" fill="#EE8888"/>
<rect x="206.919" y="168.75" width="6.27028" height="6.25" fill="#EE8888"/>
<rect x="206.919" y="187.5" width="6.27028" height="6.25" fill="#EE8888"/>
<rect x="206.919" y="206.25" width="6.27028" height="6.25" fill="#EE8888"/>
<rect x="206.919" y="225" width="6.27028" height="6.25" fill="#EE8888"/>
<rect x="206.919" y="243.75" width="6.27028" height="6.25" fill="#EE8888"/>
<rect x="206.919" y="262.5" width="6.27028" height="6.25" fill="#EE8888"/>
<rect x="206.919" y="281.25" width="6.27028" height="6.25" fill="#EE8888"/>
<rect x="206.919" y="300" width="6.27028" height="6.25" fill="#EE8888"/>
<rect x="206.919" y="318.75" width="6.27028" height="6.25" fill="#EE8888"/>
<rect x="206.919" y="337.5" width="6.27028" height="6.25" fill="#EE8888"/>
<rect x="206.919" y="356.25" width="6.27028" height="6.25" fill="#EE8888"/>
<rect x="206.919" y="375" width="6.27028" height="6.25" fill="#EE8888"/>
<rect x="206.919" y="393.75" width="6.27028" height="6.25" fill="#EE8888"/>
<rect x="225.73" width="6.27026" height="6.25" fill="#EE8888"/>
<rect x="225.73" y="18.75" width="6.27026" height="6.25" fill="#EE8888"/>
<rect x="225.73" y="37.5" width="6.27026" height="6.25" fill="#EE8888"/>
<rect x="225.73" y="56.25" width="6.27026" height="6.25" fill="#EE8888"/>
<rect x="225.73" y="75" width="6.27026" height="6.25" fill="#EE8888"/>
<rect x="225.73" y="93.75" width="6.27026" height="6.25" fill="#EE8888"/>
<rect x="225.73" y="112.5" width="6.27026" height="6.25" fill="#EE8888"/>
<rect x="225.73" y="131.25" width="6.27026" height="6.25" fill="#EE8888"/>
<rect x="225.73" y="150" width="6.27026" height="6.25" fill="#EE8888"/>
<rect x="225.73" y="168.75" width="6.27026" height="6.25" fill="#EE8888"/>
<rect x="225.73" y="187.5" width="6.27026" height="6.25" fill="#EE8888"/>
<rect x="225.73" y="206.25" width="6.27026" height="6.25" fill="#EE8888"/>
<rect x="225.73" y="225" width="6.27026" height="6.25" fill="#EE8888"/>
<rect x="225.73" y="243.75" width="6.27026" height="6.25" fill="#EE8888"/>
<rect x="225.73" y="262.5" width="6.27026" height="6.25" fill="#EE8888"/>
<rect x="225.73" y="281.25" width="6.27026" height="6.25" fill="#EE8888"/>
<rect x="225.73" y="300" width="6.27026" height="6.25" fill="#EE8888"/>
<rect x="225.73" y="318.75" width="6.27026" height="6.25" fill="#EE8888"/>
<rect x="225.73" y="337.5" width="6.27026" height="6.25" fill="#EE8888"/>
<rect x="225.73" y="356.25" width="6.27026" height="6.25" fill="#EE8888"/>
<rect x="225.73" y="375" width="6.27026" height="6.25" fill="#EE8888"/>
<rect x="225.73" y="393.75" width="6.27026" height="6.25" fill="#EE8888"/>
<rect x="94" width="6.27027" height="6.25" fill="#EE8888"/>
<rect x="94" y="18.75" width="6.27027" height="6.25" fill="#EE8888"/>
<rect x="94" y="37.5" width="6.27027" height="6.25" fill="#EE8888"/>
<rect x="94" y="56.25" width="6.27027" height="6.25" fill="#EE8888"/>
<rect x="94" y="75" width="6.27027" height="6.25" fill="#EE8888"/>
<rect x="94" y="93.75" width="6.27027" height="6.25" fill="#EE8888"/>
<rect x="94" y="112.5" width="6.27027" height="6.25" fill="#EE8888"/>
<rect x="94" y="131.25" width="6.27027" height="6.25" fill="#EE8888"/>
<rect x="94" y="150" width="6.27027" height="6.25" fill="#EE8888"/>
<rect x="94" y="168.75" width="6.27027" height="6.25" fill="#EE8888"/>
<rect x="94" y="187.5" width="6.27027" height="6.25" fill="#EE8888"/>
<rect x="94" y="206.25" width="6.27027" height="6.25" fill="#EE8888"/>
<rect x="94" y="225" width="6.27027" height="6.25" fill="#EE8888"/>
<rect x="94" y="243.75" width="6.27027" height="6.25" fill="#EE8888"/>
<rect x="94" y="262.5" width="6.27027" height="6.25" fill="#EE8888"/>
<rect x="94" y="281.25" width="6.27027" height="6.25" fill="#EE8888"/>
<rect x="94" y="300" width="6.27027" height="6.25" fill="#EE8888"/>
<rect x="94" y="318.75" width="6.27027" height="6.25" fill="#EE8888"/>
<rect x="94" y="337.5" width="6.27027" height="6.25" fill="#EE8888"/>
<rect x="94" y="356.25" width="6.27027" height="6.25" fill="#EE8888"/>
<rect x="94" y="375" width="6.27027" height="6.25" fill="#EE8888"/>
<rect x="94" y="393.75" width="6.27027" height="6.25" fill="#EE8888"/>
<rect x="112.811" width="6.27027" height="6.25" fill="#EE8888"/>
<rect x="112.811" y="18.75" width="6.27027" height="6.25" fill="#EE8888"/>
<rect x="112.811" y="37.5" width="6.27027" height="6.25" fill="#EE8888"/>
<rect x="112.811" y="56.25" width="6.27027" height="6.25" fill="#EE8888"/>
<rect x="112.811" y="75" width="6.27027" height="6.25" fill="#EE8888"/>
<rect x="112.811" y="93.75" width="6.27027" height="6.25" fill="#EE8888"/>
<rect x="112.811" y="112.5" width="6.27027" height="6.25" fill="#EE8888"/>
<rect x="112.811" y="131.25" width="6.27027" height="6.25" fill="#EE8888"/>
<rect x="112.811" y="150" width="6.27027" height="6.25" fill="#EE8888"/>
<rect x="112.811" y="168.75" width="6.27027" height="6.25" fill="#EE8888"/>
<rect x="112.811" y="187.5" width="6.27027" height="6.25" fill="#EE8888"/>
<rect x="112.811" y="206.25" width="6.27027" height="6.25" fill="#EE8888"/>
<rect x="112.811" y="225" width="6.27027" height="6.25" fill="#EE8888"/>
<rect x="112.811" y="243.75" width="6.27027" height="6.25" fill="#EE8888"/>
<rect x="112.811" y="262.5" width="6.27027" height="6.25" fill="#EE8888"/>
<rect x="112.811" y="281.25" width="6.27027" height="6.25" fill="#EE8888"/>
<rect x="112.811" y="300" width="6.27027" height="6.25" fill="#EE8888"/>
<rect x="112.811" y="318.75" width="6.27027" height="6.25" fill="#EE8888"/>
<rect x="112.811" y="337.5" width="6.27027" height="6.25" fill="#EE8888"/>
<rect x="112.811" y="356.25" width="6.27027" height="6.25" fill="#EE8888"/>
<rect x="112.811" y="375" width="6.27027" height="6.25" fill="#EE8888"/>
<rect x="112.811" y="393.75" width="6.27027" height="6.25" fill="#EE8888"/>
<rect x="131.622" width="6.27027" height="6.25" fill="#EE8888"/>
<rect x="131.622" y="18.75" width="6.27027" height="6.25" fill="#EE8888"/>
<rect x="131.622" y="37.5" width="6.27027" height="6.25" fill="#EE8888"/>
<rect x="131.622" y="56.25" width="6.27027" height="6.25" fill="#EE8888"/>
<rect x="131.622" y="75" width="6.27027" height="6.25" fill="#EE8888"/>
<rect x="131.622" y="93.75" width="6.27027" height="6.25" fill="#EE8888"/>
<rect x="131.622" y="112.5" width="6.27027" height="6.25" fill="#EE8888"/>
<rect x="131.622" y="131.25" width="6.27027" height="6.25" fill="#EE8888"/>
<rect x="131.622" y="150" width="6.27027" height="6.25" fill="#EE8888"/>
<rect x="131.622" y="168.75" width="6.27027" height="6.25" fill="#EE8888"/>
<rect x="131.622" y="187.5" width="6.27027" height="6.25" fill="#EE8888"/>
<rect x="131.622" y="206.25" width="6.27027" height="6.25" fill="#EE8888"/>
<rect x="131.622" y="225" width="6.27027" height="6.25" fill="#EE8888"/>
<rect x="131.622" y="243.75" width="6.27027" height="6.25" fill="#EE8888"/>
<rect x="131.622" y="262.5" width="6.27027" height="6.25" fill="#EE8888"/>
<rect x="131.622" y="281.25" width="6.27027" height="6.25" fill="#EE8888"/>
<rect x="131.622" y="300" width="6.27027" height="6.25" fill="#EE8888"/>
<rect x="131.622" y="318.75" width="6.27027" height="6.25" fill="#EE8888"/>
<rect x="131.622" y="337.5" width="6.27027" height="6.25" fill="#EE8888"/>
<rect x="131.622" y="356.25" width="6.27027" height="6.25" fill="#EE8888"/>
<rect x="131.622" y="375" width="6.27027" height="6.25" fill="#EE8888"/>
<rect x="131.622" y="393.75" width="6.27027" height="6.25" fill="#EE8888"/>
<rect x="150.432" width="6.27028" height="6.25" fill="#EE8888"/>
<rect x="150.432" y="18.75" width="6.27028" height="6.25" fill="#EE8888"/>
<rect x="150.432" y="37.5" width="6.27028" height="6.25" fill="#EE8888"/>
<rect x="150.432" y="56.25" width="6.27028" height="6.25" fill="#EE8888"/>
<rect x="150.432" y="75" width="6.27028" height="6.25" fill="#EE8888"/>
<rect x="150.432" y="93.75" width="6.27028" height="6.25" fill="#EE8888"/>
<rect x="150.432" y="112.5" width="6.27028" height="6.25" fill="#EE8888"/>
<rect x="150.432" y="131.25" width="6.27028" height="6.25" fill="#EE8888"/>
<rect x="150.432" y="150" width="6.27028" height="6.25" fill="#EE8888"/>
<rect x="150.432" y="168.75" width="6.27028" height="6.25" fill="#EE8888"/>
<rect x="150.432" y="187.5" width="6.27028" height="6.25" fill="#EE8888"/>
<rect x="150.432" y="206.25" width="6.27028" height="6.25" fill="#EE8888"/>
<rect x="150.432" y="225" width="6.27028" height="6.25" fill="#EE8888"/>
<rect x="150.432" y="243.75" width="6.27028" height="6.25" fill="#EE8888"/>
<rect x="150.432" y="262.5" width="6.27028" height="6.25" fill="#EE8888"/>
<rect x="150.432" y="281.25" width="6.27028" height="6.25" fill="#EE8888"/>
<rect x="150.432" y="300" width="6.27028" height="6.25" fill="#EE8888"/>
<rect x="150.432" y="318.75" width="6.27028" height="6.25" fill="#EE8888"/>
<rect x="150.432" y="337.5" width="6.27028" height="6.25" fill="#EE8888"/>
<rect x="150.432" y="356.25" width="6.27028" height="6.25" fill="#EE8888"/>
<rect x="150.432" y="375" width="6.27028" height="6.25" fill="#EE8888"/>
<rect x="150.432" y="393.75" width="6.27028" height="6.25" fill="#EE8888"/>
<rect x="169.243" width="6.27026" height="6.25" fill="#EE8888"/>
<rect x="169.243" y="18.75" width="6.27026" height="6.25" fill="#EE8888"/>
<rect x="169.243" y="37.5" width="6.27026" height="6.25" fill="#EE8888"/>
<rect x="169.243" y="56.25" width="6.27026" height="6.25" fill="#EE8888"/>
<rect x="169.243" y="75" width="6.27026" height="6.25" fill="#EE8888"/>
<rect x="169.243" y="93.75" width="6.27026" height="6.25" fill="#EE8888"/>
<rect x="169.243" y="112.5" width="6.27026" height="6.25" fill="#EE8888"/>
<rect x="169.243" y="131.25" width="6.27026" height="6.25" fill="#EE8888"/>
<rect x="169.243" y="150" width="6.27026" height="6.25" fill="#EE8888"/>
<rect x="169.243" y="168.75" width="6.27026" height="6.25" fill="#EE8888"/>
<rect x="169.243" y="187.5" width="6.27026" height="6.25" fill="#EE8888"/>
<rect x="169.243" y="206.25" width="6.27026" height="6.25" fill="#EE8888"/>
<rect x="169.243" y="225" width="6.27026" height="6.25" fill="#EE8888"/>
<rect x="169.243" y="243.75" width="6.27026" height="6.25" fill="#EE8888"/>
<rect x="169.243" y="262.5" width="6.27026" height="6.25" fill="#EE8888"/>
<rect x="169.243" y="281.25" width="6.27026" height="6.25" fill="#EE8888"/>
<rect x="169.243" y="300" width="6.27026" height="6.25" fill="#EE8888"/>
<rect x="169.243" y="318.75" width="6.27026" height="6.25" fill="#EE8888"/>
<rect x="169.243" y="337.5" width="6.27026" height="6.25" fill="#EE8888"/>
<rect x="169.243" y="356.25" width="6.27026" height="6.25" fill="#EE8888"/>
<rect x="169.243" y="375" width="6.27026" height="6.25" fill="#EE8888"/>
<rect x="169.243" y="393.75" width="6.27026" height="6.25" fill="#EE8888"/>
<rect x="188.054" width="6.27027" height="6.25" fill="#EE8888"/>
<rect x="188.054" y="18.75" width="6.27027" height="6.25" fill="#EE8888"/>
<rect x="188.054" y="37.5" width="6.27027" height="6.25" fill="#EE8888"/>
<rect x="188.054" y="56.25" width="6.27027" height="6.25" fill="#EE8888"/>
<rect x="188.054" y="75" width="6.27027" height="6.25" fill="#EE8888"/>
<rect x="188.054" y="93.75" width="6.27027" height="6.25" fill="#EE8888"/>
<rect x="188.054" y="112.5" width="6.27027" height="6.25" fill="#EE8888"/>
<rect x="188.054" y="131.25" width="6.27027" height="6.25" fill="#EE8888"/>
<rect x="188.054" y="150" width="6.27027" height="6.25" fill="#EE8888"/>
<rect x="188.054" y="168.75" width="6.27027" height="6.25" fill="#EE8888"/>
<rect x="188.054" y="187.5" width="6.27027" height="6.25" fill="#EE8888"/>
<rect x="188.054" y="206.25" width="6.27027" height="6.25" fill="#EE8888"/>
<rect x="188.054" y="225" width="6.27027" height="6.25" fill="#EE8888"/>
<rect x="188.054" y="243.75" width="6.27027" height="6.25" fill="#EE8888"/>
<rect x="188.054" y="262.5" width="6.27027" height="6.25" fill="#EE8888"/>
<rect x="188.054" y="281.25" width="6.27027" height="6.25" fill="#EE8888"/>
<rect x="188.054" y="300" width="6.27027" height="6.25" fill="#EE8888"/>
<rect x="188.054" y="318.75" width="6.27027" height="6.25" fill="#EE8888"/>
<rect x="188.054" y="337.5" width="6.27027" height="6.25" fill="#EE8888"/>
<rect x="188.054" y="356.25" width="6.27027" height="6.25" fill="#EE8888"/>
<rect x="188.054" y="375" width="6.27027" height="6.25" fill="#EE8888"/>
<rect x="188.054" y="393.75" width="6.27027" height="6.25" fill="#EE8888"/>
<rect x="206.865" width="6.27026" height="6.25" fill="#EE8888"/>
<rect x="206.865" y="18.75" width="6.27026" height="6.25" fill="#EE8888"/>
<rect x="206.865" y="37.5" width="6.27026" height="6.25" fill="#EE8888"/>
<rect x="206.865" y="56.25" width="6.27026" height="6.25" fill="#EE8888"/>
<rect x="206.865" y="75" width="6.27026" height="6.25" fill="#EE8888"/>
<rect x="206.865" y="93.75" width="6.27026" height="6.25" fill="#EE8888"/>
<rect x="206.865" y="112.5" width="6.27026" height="6.25" fill="#EE8888"/>
<rect x="206.865" y="131.25" width="6.27026" height="6.25" fill="#EE8888"/>
<rect x="206.865" y="150" width="6.27026" height="6.25" fill="#EE8888"/>
<rect x="206.865" y="168.75" width="6.27026" height="6.25" fill="#EE8888"/>
<rect x="206.865" y="187.5" width="6.27026" height="6.25" fill="#EE8888"/>
<rect x="206.865" y="206.25" width="6.27026" height="6.25" fill="#EE8888"/>
<rect x="206.865" y="225" width="6.27026" height="6.25" fill="#EE8888"/>
<rect x="206.865" y="243.75" width="6.27026" height="6.25" fill="#EE8888"/>
<rect x="206.865" y="262.5" width="6.27026" height="6.25" fill="#EE8888"/>
<rect x="206.865" y="281.25" width="6.27026" height="6.25" fill="#EE8888"/>
<rect x="206.865" y="300" width="6.27026" height="6.25" fill="#EE8888"/>
<rect x="206.865" y="318.75" width="6.27026" height="6.25" fill="#EE8888"/>
<rect x="206.865" y="337.5" width="6.27026" height="6.25" fill="#EE8888"/>
<rect x="206.865" y="356.25" width="6.27026" height="6.25" fill="#EE8888"/>
<rect x="206.865" y="375" width="6.27026" height="6.25" fill="#EE8888"/>
<rect x="206.865" y="393.75" width="6.27026" height="6.25" fill="#EE8888"/>
<rect x="225.676" width="6.27028" height="6.25" fill="#EE8888"/>
<rect x="225.676" y="18.75" width="6.27028" height="6.25" fill="#EE8888"/>
<rect x="225.676" y="37.5" width="6.27028" height="6.25" fill="#EE8888"/>
<rect x="225.676" y="56.25" width="6.27028" height="6.25" fill="#EE8888"/>
<rect x="225.676" y="75" width="6.27028" height="6.25" fill="#EE8888"/>
<rect x="225.676" y="93.75" width="6.27028" height="6.25" fill="#EE8888"/>
<rect x="225.676" y="112.5" width="6.27028" height="6.25" fill="#EE8888"/>
<rect x="225.676" y="131.25" width="6.27028" height="6.25" fill="#EE8888"/>
<rect x="225.676" y="150" width="6.27028" height="6.25" fill="#EE8888"/>
<rect x="225.676" y="168.75" width="6.27028" height="6.25" fill="#EE8888"/>
<rect x="225.676" y="187.5" width="6.27028" height="6.25" fill="#EE8888"/>
<rect x="225.676" y="206.25" width="6.27028" height="6.25" fill="#EE8888"/>
<rect x="225.676" y="225" width="6.27028" height="6.25" fill="#EE8888"/>
<rect x="225.676" y="243.75" width="6.27028" height="6.25" fill="#EE8888"/>
<rect x="225.676" y="262.5" width="6.27028" height="6.25" fill="#EE8888"/>
<rect x="225.676" y="281.25" width="6.27028" height="6.25" fill="#EE8888"/>
<rect x="225.676" y="300" width="6.27028" height="6.25" fill="#EE8888"/>
<rect x="225.676" y="318.75" width="6.27028" height="6.25" fill="#EE8888"/>
<rect x="225.676" y="337.5" width="6.27028" height="6.25" fill="#EE8888"/>
<rect x="225.676" y="356.25" width="6.27028" height="6.25" fill="#EE8888"/>
<rect x="225.676" y="375" width="6.27028" height="6.25" fill="#EE8888"/>
<rect x="225.676" y="393.75" width="6.27028" height="6.25" fill="#EE8888"/>
<rect x="244.487" width="6.27026" height="6.25" fill="#EE8888"/>
<rect x="244.487" y="18.75" width="6.27026" height="6.25" fill="#EE8888"/>
<rect x="244.487" y="37.5" width="6.27026" height="6.25" fill="#EE8888"/>
<rect x="244.487" y="56.25" width="6.27026" height="6.25" fill="#EE8888"/>
<rect x="244.487" y="75" width="6.27026" height="6.25" fill="#EE8888"/>
<rect x="244.487" y="93.75" width="6.27026" height="6.25" fill="#EE8888"/>
<rect x="244.487" y="112.5" width="6.27026" height="6.25" fill="#EE8888"/>
<rect x="244.487" y="131.25" width="6.27026" height="6.25" fill="#EE8888"/>
<rect x="244.487" y="150" width="6.27026" height="6.25" fill="#EE8888"/>
<rect x="244.487" y="168.75" width="6.27026" height="6.25" fill="#EE8888"/>
<rect x="244.487" y="187.5" width="6.27026" height="6.25" fill="#EE8888"/>
<rect x="244.487" y="206.25" width="6.27026" height="6.25" fill="#EE8888"/>
<rect x="244.487" y="225" width="6.27026" height="6.25" fill="#EE8888"/>
<rect x="244.487" y="243.75" width="6.27026" height="6.25" fill="#EE8888"/>
<rect x="244.487" y="262.5" width="6.27026" height="6.25" fill="#EE8888"/>
<rect x="244.487" y="281.25" width="6.27026" height="6.25" fill="#EE8888"/>
<rect x="244.487" y="300" width="6.27026" height="6.25" fill="#EE8888"/>
<rect x="244.487" y="318.75" width="6.27026" height="6.25" fill="#EE8888"/>
<rect x="244.487" y="337.5" width="6.27026" height="6.25" fill="#EE8888"/>
<rect x="244.487" y="356.25" width="6.27026" height="6.25" fill="#EE8888"/>
<rect x="244.487" y="375" width="6.27026" height="6.25" fill="#EE8888"/>
<rect x="244.487" y="393.75" width="6.27026" height="6.25" fill="#EE8888"/>
<rect x="263.297" width="6.27028" height="6.25" fill="#EE8888"/>
<rect x="263.297" y="18.75" width="6.27028" height="6.25" fill="#EE8888"/>
<rect x="263.297" y="37.5" width="6.27028" height="6.25" fill="#EE8888"/>
<rect x="263.297" y="56.25" width="6.27028" height="6.25" fill="#EE8888"/>
<rect x="263.297" y="75" width="6.27028" height="6.25" fill="#EE8888"/>
<rect x="263.297" y="93.75" width="6.27028" height="6.25" fill="#EE8888"/>
<rect x="263.297" y="112.5" width="6.27028" height="6.25" fill="#EE8888"/>
<rect x="263.297" y="131.25" width="6.27028" height="6.25" fill="#EE8888"/>
<rect x="263.297" y="150" width="6.27028" height="6.25" fill="#EE8888"/>
<rect x="263.297" y="168.75" width="6.27028" height="6.25" fill="#EE8888"/>
<rect x="263.297" y="187.5" width="6.27028" height="6.25" fill="#EE8888"/>
<rect x="263.297" y="206.25" width="6.27028" height="6.25" fill="#EE8888"/>
<rect x="263.297" y="225" width="6.27028" height="6.25" fill="#EE8888"/>
<rect x="263.297" y="243.75" width="6.27028" height="6.25" fill="#EE8888"/>
<rect x="263.297" y="262.5" width="6.27028" height="6.25" fill="#EE8888"/>
<rect x="263.297" y="281.25" width="6.27028" height="6.25" fill="#EE8888"/>
<rect x="263.297" y="300" width="6.27028" height="6.25" fill="#EE8888"/>
<rect x="263.297" y="318.75" width="6.27028" height="6.25" fill="#EE8888"/>
<rect x="263.297" y="337.5" width="6.27028" height="6.25" fill="#EE8888"/>
<rect x="263.297" y="356.25" width="6.27028" height="6.25" fill="#EE8888"/>
<rect x="263.297" y="375" width="6.27028" height="6.25" fill="#EE8888"/>
<rect x="263.297" y="393.75" width="6.27028" height="6.25" fill="#EE8888"/>
<rect x="282.108" width="6.27026" height="6.25" fill="#EE8888"/>
<rect x="282.108" y="18.75" width="6.27026" height="6.25" fill="#EE8888"/>
<rect x="282.108" y="37.5" width="6.27026" height="6.25" fill="#EE8888"/>
<rect x="282.108" y="56.25" width="6.27026" height="6.25" fill="#EE8888"/>
<rect x="282.108" y="75" width="6.27026" height="6.25" fill="#EE8888"/>
<rect x="282.108" y="93.75" width="6.27026" height="6.25" fill="#EE8888"/>
<rect x="282.108" y="112.5" width="6.27026" height="6.25" fill="#EE8888"/>
<rect x="282.108" y="131.25" width="6.27026" height="6.25" fill="#EE8888"/>
<rect x="282.108" y="150" width="6.27026" height="6.25" fill="#EE8888"/>
<rect x="282.108" y="168.75" width="6.27026" height="6.25" fill="#EE8888"/>
<rect x="282.108" y="187.5" width="6.27026" height="6.25" fill="#EE8888"/>
<rect x="282.108" y="206.25" width="6.27026" height="6.25" fill="#EE8888"/>
<rect x="282.108" y="225" width="6.27026" height="6.25" fill="#EE8888"/>
<rect x="282.108" y="243.75" width="6.27026" height="6.25" fill="#EE8888"/>
<rect x="282.108" y="262.5" width="6.27026" height="6.25" fill="#EE8888"/>
<rect x="282.108" y="281.25" width="6.27026" height="6.25" fill="#EE8888"/>
<rect x="282.108" y="300" width="6.27026" height="6.25" fill="#EE8888"/>
<rect x="282.108" y="318.75" width="6.27026" height="6.25" fill="#EE8888"/>
<rect x="282.108" y="337.5" width="6.27026" height="6.25" fill="#EE8888"/>
<rect x="282.108" y="356.25" width="6.27026" height="6.25" fill="#EE8888"/>
<rect x="282.108" y="375" width="6.27026" height="6.25" fill="#EE8888"/>
<rect x="282.108" y="393.75" width="6.27026" height="6.25" fill="#EE8888"/>
<rect x="300.919" width="6.27028" height="6.25" fill="#EE8888"/>
<rect x="300.919" y="18.75" width="6.27028" height="6.25" fill="#EE8888"/>
<rect x="300.919" y="37.5" width="6.27028" height="6.25" fill="#EE8888"/>
<rect x="300.919" y="56.25" width="6.27028" height="6.25" fill="#EE8888"/>
<rect x="300.919" y="75" width="6.27028" height="6.25" fill="#EE8888"/>
<rect x="300.919" y="93.75" width="6.27028" height="6.25" fill="#EE8888"/>
<rect x="300.919" y="112.5" width="6.27028" height="6.25" fill="#EE8888"/>
<rect x="300.919" y="131.25" width="6.27028" height="6.25" fill="#EE8888"/>
<rect x="300.919" y="150" width="6.27028" height="6.25" fill="#EE8888"/>
<rect x="300.919" y="168.75" width="6.27028" height="6.25" fill="#EE8888"/>
<rect x="300.919" y="187.5" width="6.27028" height="6.25" fill="#EE8888"/>
<rect x="300.919" y="206.25" width="6.27028" height="6.25" fill="#EE8888"/>
<rect x="300.919" y="225" width="6.27028" height="6.25" fill="#EE8888"/>
<rect x="300.919" y="243.75" width="6.27028" height="6.25" fill="#EE8888"/>
<rect x="300.919" y="262.5" width="6.27028" height="6.25" fill="#EE8888"/>
<rect x="300.919" y="281.25" width="6.27028" height="6.25" fill="#EE8888"/>
<rect x="300.919" y="300" width="6.27028" height="6.25" fill="#EE8888"/>
<rect x="300.919" y="318.75" width="6.27028" height="6.25" fill="#EE8888"/>
<rect x="300.919" y="337.5" width="6.27028" height="6.25" fill="#EE8888"/>
<rect x="300.919" y="356.25" width="6.27028" height="6.25" fill="#EE8888"/>
<rect x="300.919" y="375" width="6.27028" height="6.25" fill="#EE8888"/>
<rect x="300.919" y="393.75" width="6.27028" height="6.25" fill="#EE8888"/>
<rect x="319.73" width="6.27026" height="6.25" fill="#EE8888"/>
<rect x="319.73" y="18.75" width="6.27026" height="6.25" fill="#EE8888"/>
<rect x="319.73" y="37.5" width="6.27026" height="6.25" fill="#EE8888"/>
<rect x="319.73" y="56.25" width="6.27026" height="6.25" fill="#EE8888"/>
<rect x="319.73" y="75" width="6.27026" height="6.25" fill="#EE8888"/>
<rect x="319.73" y="93.75" width="6.27026" height="6.25" fill="#EE8888"/>
<rect x="319.73" y="112.5" width="6.27026" height="6.25" fill="#EE8888"/>
<rect x="319.73" y="131.25" width="6.27026" height="6.25" fill="#EE8888"/>
<rect x="319.73" y="150" width="6.27026" height="6.25" fill="#EE8888"/>
<rect x="319.73" y="168.75" width="6.27026" height="6.25" fill="#EE8888"/>
<rect x="319.73" y="187.5" width="6.27026" height="6.25" fill="#EE8888"/>
<rect x="319.73" y="206.25" width="6.27026" height="6.25" fill="#EE8888"/>
<rect x="319.73" y="225" width="6.27026" height="6.25" fill="#EE8888"/>
<rect x="319.73" y="243.75" width="6.27026" height="6.25" fill="#EE8888"/>
<rect x="319.73" y="262.5" width="6.27026" height="6.25" fill="#EE8888"/>
<rect x="319.73" y="281.25" width="6.27026" height="6.25" fill="#EE8888"/>
<rect x="319.73" y="300" width="6.27026" height="6.25" fill="#EE8888"/>
<rect x="319.73" y="318.75" width="6.27026" height="6.25" fill="#EE8888"/>
<rect x="319.73" y="337.5" width="6.27026" height="6.25" fill="#EE8888"/>
<rect x="319.73" y="356.25" width="6.27026" height="6.25" fill="#EE8888"/>
<rect x="319.73" y="375" width="6.27026" height="6.25" fill="#EE8888"/>
<rect x="319.73" y="393.75" width="6.27026" height="6.25" fill="#EE8888"/>
</g>
</svg>
