<svg width="1440" height="953" viewBox="0 0 1440 953" fill="none" xmlns="http://www.w3.org/2000/svg">
<g opacity="0.54" clip-path="url(#clip0_8_2)">
<path d="M2733.36 1233.01L-7.12286 1215.06L1.96829 -172.821L2742.45 -154.87L2733.36 1233.01Z" fill="#212121"/>
<path d="M2735.18 955.435L-1.89547 417.028L-3.1455 607.862L2733.93 1146.27L2735.18 955.435Z" fill="#1A1A1A"/>
<path d="M2736.32 781.95L-0.759058 243.544L-2.00909 434.377L2735.07 972.783L2736.32 781.95Z" fill="#141414"/>
<path d="M2737.45 608.465L0.377299 70.0579L-0.872735 260.892L2736.2 799.298L2737.45 608.465Z" fill="#0D0D0D"/>
<path d="M2738.59 434.98L1.51371 -103.427L0.263677 87.4067L2737.34 625.813L2738.59 434.98Z" fill="#070707"/>
<path d="M2742.45 -154.87L1.96829 -172.821L1.40009 -86.0783L2738.48 452.328L2742.45 -154.87Z" fill="black"/>
</g>
<defs>
<clipPath id="clip0_8_2">
<rect width="2740.54" height="2775.82" fill="white" transform="matrix(0.999979 0.00655025 0.00655025 -0.999979 -11.6685 1909)"/>
</clipPath>
</defs>
</svg>
