<svg width="10" height="16" viewBox="0 0 10 16" fill="none" xmlns="http://www.w3.org/2000/svg">
<path d="M3.5 0.75H3V1.25C3 1.25442 3 1.25883 3 1.26324C2.99999 1.36826 2.99998 1.47057 3.00592 1.55761C3.01241 1.6528 3.02765 1.76566 3.07612 1.88268C3.17761 2.12771 3.37229 2.32239 3.61732 2.42388C3.73434 2.47235 3.8472 2.48759 3.94239 2.49408C4.02943 2.50002 4.13174 2.50001 4.23677 2.5C4.24117 2.5 4.24558 2.5 4.25 2.5H5.75C5.75442 2.5 5.75883 2.5 5.76323 2.5C5.86826 2.50001 5.97057 2.50002 6.05761 2.49408C6.1528 2.48759 6.26566 2.47235 6.38268 2.42388C6.62771 2.32239 6.82239 2.12771 6.92388 1.88268C6.97235 1.76566 6.98759 1.6528 6.99408 1.55761C7.00002 1.47057 7.00001 1.36826 7 1.26324L7 1.25V0.75H6.5H3.5Z" stroke="white"/>
<rect x="1" y="1" width="8" height="14" rx="1.5" stroke="white"/>
<circle cx="5" cy="12.5" r="0.75" fill="white"/>
</svg>
