<svg width="34" height="34" viewBox="0 0 34 34" fill="none" xmlns="http://www.w3.org/2000/svg">
<g filter="url(#filter0_d_44_3690)">
<path fill-rule="evenodd" clip-rule="evenodd" d="M17 27C22.5228 27 27 22.5228 27 17C27 11.4772 22.5228 7 17 7C11.4772 7 7 11.4772 7 17C7 22.5228 11.4772 27 17 27ZM15.4494 12.4349L22.0932 16.1258C22.779 16.5068 22.779 17.4932 22.0932 17.8742L15.4494 21.5651C14.6496 22.0095 13.6667 21.4311 13.6667 20.5161V13.4839C13.6667 12.5689 14.6496 11.9905 15.4494 12.4349Z" fill="url(#paint0_linear_44_3690)"/>
</g>
<defs>
<filter id="filter0_d_44_3690" x="0" y="0" width="34" height="34" filterUnits="userSpaceOnUse" color-interpolation-filters="sRGB">
<feFlood flood-opacity="0" result="BackgroundImageFix"/>
<feColorMatrix in="SourceAlpha" type="matrix" values="0 0 0 0 0 0 0 0 0 0 0 0 0 0 0 0 0 0 127 0" result="hardAlpha"/>
<feOffset/>
<feGaussianBlur stdDeviation="3.5"/>
<feComposite in2="hardAlpha" operator="out"/>
<feColorMatrix type="matrix" values="0 0 0 0 0.623529 0 0 0 0 0.188235 0 0 0 0 0.694118 0 0 0 1 0"/>
<feBlend mode="normal" in2="BackgroundImageFix" result="effect1_dropShadow_44_3690"/>
<feBlend mode="normal" in="SourceGraphic" in2="effect1_dropShadow_44_3690" result="shape"/>
</filter>
<linearGradient id="paint0_linear_44_3690" x1="7" y1="7" x2="27" y2="27" gradientUnits="userSpaceOnUse">
<stop stop-color="#E03BDA"/>
<stop offset="1" stop-color="#6DEDFF"/>
</linearGradient>
</defs>
</svg>
