<svg width="14" height="14" viewBox="0 0 14 14" fill="none" xmlns="http://www.w3.org/2000/svg">
<path fill-rule="evenodd" clip-rule="evenodd" d="M0.984121 0.984121C0 1.96824 0 3.55215 0 6.72V7.28C0 10.4478 0 12.0317 0.984121 13.0159C1.96824 14 3.55215 14 6.72 14H7.28C10.4478 14 12.0317 14 13.0159 13.0159C14 12.0317 14 10.4478 14 7.28V6.72C14 3.55215 14 1.96824 13.0159 0.984121C12.0317 0 10.4478 0 7.28 0H6.72C3.55215 0 1.96824 0 0.984121 0.984121ZM2.36253 4.25836C2.43837 7.89836 4.25836 10.0859 7.4492 10.0859H7.63006V8.00336C8.80256 8.12003 9.68917 8.97753 10.045 10.0859H11.7017C11.2467 8.4292 10.0508 7.51336 9.30414 7.16336C10.0508 6.7317 11.1008 5.6817 11.3516 4.25836H9.84661C9.51994 5.41336 8.55172 6.46336 7.63006 6.56253V4.25836H6.125V8.29503C5.19167 8.0617 4.01336 6.93003 3.96086 4.25836H2.36253Z" fill="white" fill-opacity="0.55"/>
</svg>
