<svg width="14" height="14" viewBox="0 0 14 14" fill="none" xmlns="http://www.w3.org/2000/svg">
<g opacity="0.7">
<path d="M7 14C10.866 14 14 10.866 14 7C14 3.13401 10.866 0 7 0C3.13401 0 0 3.13401 0 7C0 10.866 3.13401 14 7 14Z" fill="#25D366"/>
<path fill-rule="evenodd" clip-rule="evenodd" d="M7.23072 10.8945H7.229C6.53236 10.8943 5.84785 10.7195 5.23989 10.3879L3.03333 10.9667L3.62384 8.80976C3.25958 8.1785 3.06791 7.46245 3.06822 6.72884C3.06914 4.43384 4.9364 2.56668 7.23068 2.56668C8.34418 2.56716 9.38927 3.00064 10.1751 3.78743C10.961 4.57417 11.3936 5.61994 11.3931 6.73212C11.3922 9.02659 9.52568 10.8936 7.23072 10.8945ZM5.34213 9.63432L5.46847 9.7093C5.99964 10.0245 6.60853 10.1913 7.22933 10.1915H7.23074C9.13758 10.1915 10.6896 8.63952 10.6903 6.73188C10.6907 5.80746 10.3312 4.93825 9.67799 4.28431C9.02481 3.63036 8.15617 3.27005 7.2321 3.26973C5.32378 3.26973 3.77177 4.82159 3.77102 6.72908C3.77075 7.38279 3.95366 8.01943 4.29997 8.57025L4.38223 8.70114L4.03273 9.9778L5.34213 9.63432ZM9.1853 7.62829C9.25784 7.66334 9.30682 7.68702 9.32774 7.72193C9.35373 7.7653 9.35373 7.97353 9.2671 8.21652C9.1804 8.45945 8.7649 8.68118 8.56506 8.71103C8.38589 8.73782 8.15913 8.749 7.91 8.66982C7.75893 8.62189 7.56522 8.5579 7.31708 8.45073C6.34206 8.02972 5.68314 7.08472 5.55861 6.90611C5.54989 6.8936 5.54378 6.88485 5.54038 6.8803L5.53954 6.87918C5.4845 6.80574 5.1157 6.31368 5.1157 5.80441C5.1157 5.32534 5.35103 5.07423 5.45935 4.95865C5.46677 4.95073 5.4736 4.94345 5.47971 4.93677C5.57504 4.83265 5.68772 4.80661 5.75706 4.80661C5.82638 4.80661 5.89579 4.80725 5.95639 4.8103C5.96387 4.81067 5.97165 4.81063 5.97969 4.81058C6.04029 4.81023 6.11586 4.80978 6.1904 4.98883C6.21907 5.05773 6.26103 5.15988 6.30528 5.26762C6.39478 5.4855 6.49366 5.72624 6.51106 5.76108C6.53707 5.81314 6.5544 5.87385 6.51973 5.9433C6.51453 5.95371 6.50971 5.96354 6.50512 5.97292C6.47908 6.02608 6.45992 6.06519 6.41573 6.11679C6.39835 6.13708 6.38039 6.15895 6.36243 6.18082C6.32665 6.2244 6.29087 6.26797 6.25972 6.299C6.20765 6.35087 6.15345 6.40713 6.21412 6.51126C6.27479 6.61538 6.48352 6.95595 6.79271 7.23174C7.12507 7.5282 7.41393 7.6535 7.56035 7.71701C7.58895 7.72941 7.61211 7.73946 7.6291 7.74796C7.73306 7.80004 7.79374 7.79132 7.85441 7.72193C7.91508 7.65252 8.1144 7.41823 8.18372 7.31412C8.25305 7.21004 8.32241 7.22737 8.41772 7.26207C8.51308 7.29681 9.02441 7.54839 9.12842 7.60044C9.14872 7.61061 9.1677 7.61978 9.1853 7.62829Z" fill="#FDFDFD"/>
</g>
</svg>
