<svg width="95" height="64" viewBox="0 0 95 64" fill="none" xmlns="http://www.w3.org/2000/svg">
<path d="M2.436 14.66H5.292L7.406 26H5.096L4.718 23.606H3.052L2.66 26H0.294L2.436 14.66ZM4.48 22.108L3.878 17.684L3.276 22.108H4.48ZM18.4909 14.66H21.3609C22.3409 14.66 23.1063 14.7813 23.6569 15.024C24.2076 15.2667 24.5949 15.6493 24.8189 16.172C25.0523 16.6853 25.1689 17.376 25.1689 18.244V22.36C25.1689 23.2373 25.0523 23.9373 24.8189 24.46C24.5949 24.9827 24.2076 25.37 23.6569 25.622C23.1156 25.874 22.3596 26 21.3889 26H18.4909V14.66ZM21.3889 24.264C21.7529 24.264 22.0189 24.2127 22.1869 24.11C22.3643 23.998 22.4763 23.844 22.5229 23.648C22.5696 23.4427 22.5929 23.144 22.5929 22.752V17.81C22.5929 17.446 22.5649 17.1707 22.5089 16.984C22.4623 16.788 22.3503 16.6433 22.1729 16.55C22.0049 16.4567 21.7389 16.41 21.3749 16.41H20.9969V24.264H21.3889ZM35.9927 14.66H38.1347L39.3527 22.36L40.4867 14.66H42.7547L40.6827 26H38.0367L35.9927 14.66ZM53.8338 14.66H58.9298V16.368H56.3398V19.182H58.3138V20.918H56.3398V24.306H58.9578V26H53.8338V14.66ZM70.0355 14.66H71.7995L74.1235 20.12V14.66H76.1955V26H74.5015L72.1775 20.12V26H70.0355V14.66ZM88.8452 16.522H87.1372V14.66H93.0592V16.522H91.3652V26H88.8452V16.522Z" fill="url(#paint0_radial_55_5279)"/>
<path d="M2.92 37.12C2.04 37.12 1.41333 36.89 1.04 36.43C0.673333 35.9633 0.49 35.2933 0.49 34.42V31.5C0.49 30.6067 0.673333 29.9333 1.04 29.48C1.40667 29.02 2.03333 28.79 2.92 28.79C3.76667 28.79 4.36667 28.9933 4.72 29.4C5.07333 29.8067 5.25 30.3833 5.25 31.13V31.83H3.5V31.02C3.5 30.7067 3.46667 30.4667 3.4 30.3C3.33333 30.1333 3.17333 30.05 2.92 30.05C2.66667 30.05 2.5 30.14 2.42 30.32C2.34 30.4933 2.3 30.7367 2.3 31.05V34.86C2.3 35.18 2.34 35.4267 2.42 35.6C2.50667 35.7667 2.67333 35.85 2.92 35.85C3.16667 35.85 3.32333 35.7667 3.39 35.6C3.46333 35.4267 3.5 35.18 3.5 34.86V34.01H5.25V34.71C5.25 35.47 5.07333 36.0633 4.72 36.49C4.36667 36.91 3.76667 37.12 2.92 37.12ZM14.4548 37.12C13.5814 37.12 12.9581 36.8967 12.5848 36.45C12.2114 35.9967 12.0248 35.33 12.0248 34.45V31.44C12.0248 30.56 12.2114 29.9 12.5848 29.46C12.9581 29.0133 13.5814 28.79 14.4548 28.79C15.3348 28.79 15.9614 29.0133 16.3348 29.46C16.7148 29.9067 16.9048 30.5667 16.9048 31.44V34.45C16.9048 35.33 16.7148 35.9967 16.3348 36.45C15.9614 36.8967 15.3348 37.12 14.4548 37.12ZM14.4548 35.85C14.7081 35.85 14.8748 35.7667 14.9548 35.6C15.0348 35.4267 15.0748 35.1933 15.0748 34.9V31C15.0748 30.7 15.0348 30.4667 14.9548 30.3C14.8748 30.1333 14.7081 30.05 14.4548 30.05C14.2148 30.05 14.0548 30.1367 13.9748 30.31C13.8948 30.4767 13.8548 30.7067 13.8548 31V34.9C13.8548 35.1933 13.8914 35.4267 13.9648 35.6C14.0381 35.7667 14.2014 35.85 14.4548 35.85ZM26.0441 37.12C25.2708 37.12 24.6941 36.9167 24.3141 36.51C23.9408 36.0967 23.7408 35.4433 23.7141 34.55L25.2441 34.32C25.2508 34.8333 25.3108 35.2033 25.4241 35.43C25.5441 35.65 25.7208 35.76 25.9541 35.76C26.2541 35.76 26.4041 35.5633 26.4041 35.17C26.4041 34.8567 26.3308 34.5867 26.1841 34.36C26.0441 34.1333 25.8208 33.89 25.5141 33.63L24.8141 33.02C24.4675 32.7267 24.1975 32.4167 24.0041 32.09C23.8175 31.7567 23.7241 31.3633 23.7241 30.91C23.7241 30.23 23.9241 29.7067 24.3241 29.34C24.7308 28.9733 25.2875 28.79 25.9941 28.79C26.7608 28.79 27.2808 29.0133 27.5541 29.46C27.8341 29.9067 27.9841 30.45 28.0041 31.09L26.4641 31.28C26.4508 30.86 26.4108 30.56 26.3441 30.38C26.2841 30.1933 26.1475 30.1 25.9341 30.1C25.7808 30.1 25.6608 30.1667 25.5741 30.3C25.4941 30.4267 25.4541 30.57 25.4541 30.73C25.4541 31.0033 25.5141 31.2333 25.6341 31.42C25.7608 31.6067 25.9608 31.82 26.2341 32.06L26.9041 32.65C27.3041 32.99 27.6141 33.35 27.8341 33.73C28.0541 34.11 28.1641 34.56 28.1641 35.08C28.1641 35.46 28.0741 35.8067 27.8941 36.12C27.7208 36.4267 27.4741 36.67 27.1541 36.85C26.8341 37.03 26.4641 37.12 26.0441 37.12ZM34.9627 28.9H36.8827L37.7727 33.61L38.7327 28.9H40.5827L40.7227 37H39.4527L39.3027 31.61L38.3627 37H37.2327L36.2327 31.57L36.1127 37H34.8227L34.9627 28.9ZM47.7937 28.9H51.4337V30.12H49.5837V32.13H50.9937V33.37H49.5837V35.79H51.4537V37H47.7937V28.9ZM58.8964 30.23H57.6764V28.9H61.9064V30.23H60.6964V37H58.8964V30.23ZM68.5295 28.9H70.3195V37H68.5295V28.9ZM79.7473 37.12C78.8673 37.12 78.2407 36.89 77.8673 36.43C77.5007 35.9633 77.3173 35.2933 77.3173 34.42V31.5C77.3173 30.6067 77.5007 29.9333 77.8673 29.48C78.234 29.02 78.8607 28.79 79.7473 28.79C80.594 28.79 81.194 28.9933 81.5473 29.4C81.9007 29.8067 82.0773 30.3833 82.0773 31.13V31.83H80.3273V31.02C80.3273 30.7067 80.294 30.4667 80.2273 30.3C80.1607 30.1333 80.0007 30.05 79.7473 30.05C79.494 30.05 79.3273 30.14 79.2473 30.32C79.1673 30.4933 79.1273 30.7367 79.1273 31.05V34.86C79.1273 35.18 79.1673 35.4267 79.2473 35.6C79.334 35.7667 79.5007 35.85 79.7473 35.85C79.994 35.85 80.1507 35.7667 80.2173 35.6C80.2907 35.4267 80.3273 35.18 80.3273 34.86V34.01H82.0773V34.71C82.0773 35.47 81.9007 36.0633 81.5473 36.49C81.194 36.91 80.594 37.12 79.7473 37.12ZM91.1121 37.12C90.3388 37.12 89.7621 36.9167 89.3821 36.51C89.0088 36.0967 88.8088 35.4433 88.7821 34.55L90.3121 34.32C90.3188 34.8333 90.3788 35.2033 90.4921 35.43C90.6121 35.65 90.7888 35.76 91.0221 35.76C91.3221 35.76 91.4721 35.5633 91.4721 35.17C91.4721 34.8567 91.3988 34.5867 91.2521 34.36C91.1121 34.1333 90.8888 33.89 90.5821 33.63L89.8821 33.02C89.5354 32.7267 89.2654 32.4167 89.0721 32.09C88.8854 31.7567 88.7921 31.3633 88.7921 30.91C88.7921 30.23 88.9921 29.7067 89.3921 29.34C89.7988 28.9733 90.3554 28.79 91.0621 28.79C91.8288 28.79 92.3488 29.0133 92.6221 29.46C92.9021 29.9067 93.0521 30.45 93.0721 31.09L91.5321 31.28C91.5188 30.86 91.4788 30.56 91.4121 30.38C91.3521 30.1933 91.2154 30.1 91.0021 30.1C90.8488 30.1 90.7288 30.1667 90.6421 30.3C90.5621 30.4267 90.5221 30.57 90.5221 30.73C90.5221 31.0033 90.5821 31.2333 90.7021 31.42C90.8288 31.6067 91.0288 31.82 91.3021 32.06L91.9721 32.65C92.3721 32.99 92.6821 33.35 92.9021 33.73C93.1221 34.11 93.2321 34.56 93.2321 35.08C93.2321 35.46 93.1421 35.8067 92.9621 36.12C92.7888 36.4267 92.5421 36.67 92.2221 36.85C91.9021 37.03 91.5321 37.12 91.1121 37.12Z" fill="url(#paint1_radial_55_5279)"/>
<path d="M2.84033 2.24561C2.2137 2.24561 1.72038 2.44613 1.36035 2.84717C1.00033 3.24821 0.820312 3.79736 0.820312 4.49463C0.820312 5.20784 0.990072 5.76156 1.32959 6.15576C1.66911 6.54997 2.15446 6.74707 2.78564 6.74707C3.20492 6.74707 3.59001 6.69352 3.94092 6.58643V6.89404C3.61051 7.01025 3.19808 7.06836 2.70361 7.06836C2.00179 7.06836 1.44922 6.84163 1.0459 6.38818C0.642578 5.93473 0.440918 5.30127 0.440918 4.48779C0.440918 3.97966 0.536621 3.5319 0.728027 3.14453C0.921712 2.75716 1.19857 2.45866 1.55859 2.24902C1.9209 2.03711 2.34131 1.93115 2.81982 1.93115C3.30745 1.93115 3.74382 2.0223 4.12891 2.20459L3.98877 2.51904C3.62419 2.33675 3.24137 2.24561 2.84033 2.24561Z" fill="white" fill-opacity="0.42"/>
<path d="M9.32586 4.49463C9.32586 5.2876 9.12762 5.91536 8.73113 6.37793C8.33465 6.83822 7.78777 7.06836 7.09051 7.06836C6.39552 7.06836 5.84979 6.83822 5.4533 6.37793C5.05682 5.91536 4.85857 5.28532 4.85857 4.48779C4.85857 3.69255 5.05796 3.06706 5.45672 2.61133C5.85776 2.15332 6.40464 1.92432 7.09734 1.92432C7.79461 1.92432 8.34034 2.15446 8.73455 2.61475C9.12876 3.07275 9.32586 3.69938 9.32586 4.49463ZM5.23797 4.49463C5.23797 5.21012 5.39747 5.76383 5.71648 6.15576C6.03549 6.54541 6.4935 6.74023 7.09051 6.74023C7.69207 6.74023 8.15122 6.54655 8.46795 6.15918C8.78696 5.77181 8.94646 5.21696 8.94646 4.49463C8.94646 3.77458 8.78696 3.22314 8.46795 2.84033C8.15122 2.45524 7.69435 2.2627 7.09734 2.2627C6.50262 2.2627 6.04347 2.45638 5.7199 2.84375C5.39861 3.23112 5.23797 3.78141 5.23797 4.49463Z" fill="white" fill-opacity="0.42"/>
<path d="M10.5477 2.00293H11.9183C12.5358 2.00293 12.9893 2.10775 13.2787 2.31738C13.5681 2.52702 13.7128 2.84375 13.7128 3.26758C13.7128 3.55697 13.6239 3.7985 13.4462 3.99219C13.2707 4.18359 13.0132 4.30664 12.6737 4.36133V4.38184C13.0725 4.44108 13.3653 4.56755 13.5521 4.76123C13.7412 4.95264 13.8358 5.22038 13.8358 5.56445C13.8358 6.02474 13.6831 6.37907 13.3778 6.62744C13.0725 6.87581 12.6395 7 12.079 7H10.5477V2.00293ZM10.8963 4.22803H11.9969C12.4663 4.22803 12.807 4.15055 13.0189 3.99561C13.2331 3.83838 13.3402 3.59342 13.3402 3.26074C13.3402 2.92806 13.2194 2.68652 12.9779 2.53613C12.7386 2.38574 12.3809 2.31055 11.9046 2.31055H10.8963V4.22803ZM10.8963 4.53564V6.69238H12.0721C12.9973 6.69238 13.4598 6.31641 13.4598 5.56445C13.4598 4.87858 12.9722 4.53564 11.9969 4.53564H10.8963Z" fill="white" fill-opacity="0.42"/>
<path d="M18.0142 3.43848C18.0142 3.92155 17.8501 4.29183 17.522 4.54932C17.1939 4.8068 16.729 4.93555 16.1275 4.93555H15.355V7H15.0064V2.00293H16.23C17.4195 2.00293 18.0142 2.48145 18.0142 3.43848ZM15.355 4.63477H16.042C16.6049 4.63477 17.0116 4.54248 17.2622 4.35791C17.5129 4.17106 17.6382 3.86914 17.6382 3.45215C17.6382 3.06706 17.5197 2.78223 17.2828 2.59766C17.0458 2.41081 16.6789 2.31738 16.1822 2.31738H15.355V4.63477Z" fill="white" fill-opacity="0.42"/>
<path d="M21.9021 7H19.1711V2.00293H21.9021V2.32422H19.5197V4.21436H21.7688V4.53564H19.5197V6.67871H21.9021V7Z" fill="white" fill-opacity="0.42"/>
<path d="M25.3012 7L23.4384 2.38574H23.411C23.4293 2.66829 23.4384 2.95768 23.4384 3.25391V7H23.1034V2.00293H23.6435L25.414 6.39844H25.4345L27.205 2.00293H27.7313V7H27.3793V3.21289C27.3793 2.94857 27.393 2.67513 27.4203 2.39258H27.393L25.5233 7H25.3012Z" fill="white" fill-opacity="0.42"/>
<path d="M31.9473 7H29.2164V2.00293H31.9473V2.32422H29.565V4.21436H31.814V4.53564H29.565V6.67871H31.9473V7Z" fill="white" fill-opacity="0.42"/>
<path d="M36.7683 7H36.4163V4.54248H33.4973V7H33.1487V2.00293H33.4973V4.22119H36.4163V2.00293H36.7683V7Z" fill="white" fill-opacity="0.42"/>
<path d="M41.8764 7H41.5244V4.54248H38.6054V7H38.2568V2.00293H38.6054V4.22119H41.5244V2.00293H41.8764V7Z" fill="white" fill-opacity="0.42"/>
<path d="M45.7711 5.23633H43.7408L43.0436 7H42.6573L44.6671 1.98242H44.8893L46.858 7H46.465L45.7711 5.23633ZM43.8673 4.92188H45.6549L44.9747 3.12061C44.9178 2.97933 44.8494 2.78337 44.7696 2.53271C44.7081 2.75146 44.6409 2.94971 44.568 3.12744L43.8673 4.92188Z" fill="white" fill-opacity="0.42"/>
<path d="M48.7942 4.82275L47.4578 7H47.0374L48.4422 4.75439C48.0936 4.68604 47.8235 4.53678 47.6321 4.30664C47.4407 4.0765 47.345 3.78711 47.345 3.43848C47.345 2.48145 47.9443 2.00293 49.1429 2.00293H50.3323V7H49.9837V4.82275H48.7942ZM49.9837 2.31738H49.1565C48.653 2.31738 48.2872 2.40511 48.0594 2.58057C47.8338 2.75374 47.721 3.03402 47.721 3.42139C47.721 3.78597 47.8326 4.06055 48.056 4.24512C48.2793 4.42969 48.6063 4.52197 49.0369 4.52197H49.9837V2.31738Z" fill="white" fill-opacity="0.42"/>
<path d="M57.0006 7H56.5255L54.0544 4.45361V7H53.7057V2.00293H54.0544V4.42285L56.4572 2.00293H56.9186L54.5021 4.42285L57.0006 7Z" fill="white" fill-opacity="0.42"/>
<path d="M61.9823 4.49463C61.9823 5.2876 61.784 5.91536 61.3875 6.37793C60.9911 6.83822 60.4442 7.06836 59.7469 7.06836C59.0519 7.06836 58.5062 6.83822 58.1097 6.37793C57.7132 5.91536 57.515 5.28532 57.515 4.48779C57.515 3.69255 57.7144 3.06706 58.1131 2.61133C58.5142 2.15332 59.061 1.92432 59.7537 1.92432C60.451 1.92432 60.9967 2.15446 61.391 2.61475C61.7852 3.07275 61.9823 3.69938 61.9823 4.49463ZM57.8944 4.49463C57.8944 5.21012 58.0539 5.76383 58.3729 6.15576C58.6919 6.54541 59.1499 6.74023 59.7469 6.74023C60.3485 6.74023 60.8076 6.54655 61.1244 6.15918C61.4434 5.77181 61.6029 5.21696 61.6029 4.49463C61.6029 3.77458 61.4434 3.22314 61.1244 2.84033C60.8076 2.45524 60.3508 2.2627 59.7537 2.2627C59.159 2.2627 58.6999 2.45638 58.3763 2.84375C58.055 3.23112 57.8944 3.78141 57.8944 4.49463Z" fill="white" fill-opacity="0.42"/>
<path d="M65.3369 2.24561C64.7103 2.24561 64.217 2.44613 63.857 2.84717C63.4969 3.24821 63.3169 3.79736 63.3169 4.49463C63.3169 5.20784 63.4867 5.76156 63.8262 6.15576C64.1657 6.54997 64.6511 6.74707 65.2822 6.74707C65.7015 6.74707 66.0866 6.69352 66.4375 6.58643V6.89404C66.1071 7.01025 65.6947 7.06836 65.2002 7.06836C64.4984 7.06836 63.9458 6.84163 63.5425 6.38818C63.1392 5.93473 62.9375 5.30127 62.9375 4.48779C62.9375 3.97966 63.0332 3.5319 63.2246 3.14453C63.4183 2.75716 63.6952 2.45866 64.0552 2.24902C64.4175 2.03711 64.8379 1.93115 65.3164 1.93115C65.8041 1.93115 66.2404 2.0223 66.6255 2.20459L66.4854 2.51904C66.1208 2.33675 65.738 2.24561 65.3369 2.24561Z" fill="white" fill-opacity="0.42"/>
<path d="M69.8195 7L67.9567 2.38574H67.9294C67.9476 2.66829 67.9567 2.95768 67.9567 3.25391V7H67.6218V2.00293H68.1618L69.9323 6.39844H69.9528L71.7233 2.00293H72.2497V7H71.8977V3.21289C71.8977 2.94857 71.9113 2.67513 71.9387 2.39258H71.9113L70.0417 7H69.8195Z" fill="white" fill-opacity="0.42"/>
<path d="M76.4657 7H73.7347V2.00293H76.4657V2.32422H74.0834V4.21436H76.3324V4.53564H74.0834V6.67871H76.4657V7Z" fill="white" fill-opacity="0.42"/>
<path d="M78.9693 7H78.6172V2.33105H76.9937V2.00293H80.5928V2.33105H78.9693V7Z" fill="white" fill-opacity="0.42"/>
<path d="M81.408 2.00293H81.7429V5.27051C81.7429 5.50293 81.7338 5.89258 81.7156 6.43945H81.7361L84.6892 2.00293H85.0413V7H84.7029V3.75293C84.7029 3.38379 84.7177 2.98503 84.7473 2.55664H84.72L81.7566 7H81.408V2.00293Z" fill="white" fill-opacity="0.42"/>
<path d="M89.8246 7H89.3495L86.8783 4.45361V7H86.5297V2.00293H86.8783V4.42285L89.2812 2.00293H89.7426L87.3261 4.42285L89.8246 7Z" fill="white" fill-opacity="0.42"/>
<path d="M93.0118 5.23633H90.9815L90.2843 7H89.898L91.9078 1.98242H92.13L94.0987 7H93.7057L93.0118 5.23633ZM91.108 4.92188H92.8956L92.2154 3.12061C92.1585 2.97933 92.0901 2.78337 92.0104 2.53271C91.9488 2.75146 91.8816 2.94971 91.8087 3.12744L91.108 4.92188Z" fill="white" fill-opacity="0.42"/>
<g opacity="0.15">
<path d="M2.67419 62L5.54768 61.9952L7.65554 50.5546L5.3314 50.5585L4.95512 52.9736L3.27891 52.9764L2.88048 50.5626L0.5 50.5666L2.67419 62ZM4.71817 54.4848L4.11993 58.9477L3.50681 54.4868L4.71817 54.4848Z" fill="url(#paint2_linear_55_5279)"/>
<path d="M18.757 61.973L21.6445 61.9682C22.6305 61.9665 23.4004 61.8429 23.954 61.5972C24.5076 61.3515 24.8967 60.9649 25.1212 60.4374C25.3551 59.9193 25.4713 59.2225 25.4698 58.3471L25.4629 54.1959C25.4614 53.311 25.3429 52.6052 25.1072 52.0785C24.881 51.5517 24.4906 51.1617 23.9362 50.9085C23.3911 50.6553 22.6302 50.5295 21.6536 50.5311L18.7379 50.536L18.757 61.973ZM21.6566 52.282C22.0228 52.2813 22.2905 52.3327 22.4597 52.4359C22.6383 52.5486 22.7513 52.7037 22.7985 52.9013C22.8458 53.1083 22.8698 53.4095 22.8705 53.8049L22.8788 58.7892C22.8794 59.1563 22.8517 59.434 22.7957 59.6224C22.749 59.8201 22.6366 59.9662 22.4583 60.0607C22.2895 60.1551 22.0219 60.2026 21.6557 60.2032L21.2754 60.2038L21.2622 52.2826L21.6566 52.282Z" fill="url(#paint3_linear_55_5279)"/>
<path d="M36.2954 61.9436L38.4506 61.94L39.6631 54.1721L40.817 61.9361L43.0988 61.9322L40.9951 50.4987L38.3329 50.5031L36.2954 61.9436Z" fill="url(#paint4_linear_55_5279)"/>
<path d="M54.1754 61.9137L59.3026 61.9051L59.2997 60.1825L56.6938 60.1868L56.6891 57.3487L58.6752 57.3454L58.6723 55.5945L56.6862 55.5979L56.6805 52.1809L59.3145 52.1765L59.3117 50.468L54.1563 50.4766L54.1754 61.9137Z" fill="url(#paint5_linear_55_5279)"/>
<path d="M70.4058 61.8865L72.1806 61.8835L74.5097 56.3728L74.5189 61.8796L76.6035 61.8761L76.5845 50.439L74.8801 50.4419L72.5518 56.3761L72.5419 50.4458L70.3868 50.4494L70.4058 61.8865Z" fill="url(#paint6_linear_55_5279)"/>
<path d="M89.2571 59.9769L87.5386 59.9798L87.5417 61.8577L93.5 61.8477L93.4969 59.9698L91.7925 59.9727L91.7765 50.4135L89.2411 50.4178L89.2571 59.9769Z" fill="url(#paint7_linear_55_5279)"/>
<path d="M3.06428 39.1478C2.1966 39.1492 1.57909 39.3776 1.21174 39.8329C0.850975 40.2947 0.67131 40.9572 0.672752 41.8204L0.677567 44.7065C0.679039 45.5895 0.860909 46.2547 1.22319 46.7022C1.58548 47.1562 2.20376 47.3825 3.07801 47.381C3.91283 47.3796 4.50409 47.1777 4.85181 46.7751C5.19952 46.3726 5.37276 45.8023 5.37153 45.0644L5.37038 44.3725L3.64487 44.3754L3.64622 45.176C3.64674 45.4857 3.61427 45.7229 3.54881 45.8878C3.48335 46.0526 3.32572 46.1352 3.07594 46.1357C2.82615 46.1361 2.66167 46.0474 2.58249 45.8696C2.50333 45.6984 2.46349 45.458 2.46297 45.1483L2.45668 41.3825C2.45615 41.0663 2.49519 40.8224 2.57378 40.6509C2.65897 40.4861 2.82317 40.4034 3.06638 40.403C3.30959 40.4026 3.4642 40.4847 3.5302 40.6493C3.6028 40.8205 3.63935 41.0643 3.63988 41.3806L3.64128 42.2207L5.36678 42.2178L5.36562 41.5259C5.36437 40.7748 5.1892 40.1886 4.84011 39.7675C4.49104 39.3529 3.89909 39.1464 3.06428 39.1478Z" fill="url(#paint8_linear_55_5279)"/>
<path d="M14.5854 39.1284C13.7243 39.1299 13.1101 39.3517 12.7427 39.7938C12.3754 40.2424 12.1924 40.9017 12.1939 41.7715L12.1988 44.7465C12.2003 45.6163 12.3854 46.2683 12.7543 46.7026C13.1231 47.1435 13.7381 47.3632 14.5992 47.3617C15.4669 47.3603 16.0844 47.1385 16.4518 46.6964C16.8257 46.2543 17.0119 45.6016 17.0105 44.7384L17.0055 41.7634C17.0041 40.8936 16.8157 40.235 16.4402 39.7876C16.0714 39.3467 15.4531 39.127 14.5854 39.1284ZM14.5875 40.3837C14.8373 40.3833 15.0018 40.4654 15.0809 40.63C15.1601 40.8012 15.1999 41.0317 15.2004 41.3216L15.2069 45.1764C15.2074 45.4729 15.1683 45.7036 15.0897 45.8684C15.0111 46.0333 14.8469 46.1159 14.5971 46.1163C14.3605 46.1167 14.2026 46.0313 14.1234 45.8602C14.0442 45.6956 14.0044 45.4683 14.0039 45.1784L13.9975 41.3237C13.997 41.0337 14.0328 40.803 14.1048 40.6316C14.1768 40.4668 14.3378 40.3841 14.5875 40.3837Z" fill="url(#paint9_linear_55_5279)"/>
<path d="M26.1605 39.109C25.3979 39.1103 24.8297 39.3122 24.4557 39.7148C24.0883 40.124 23.8921 40.77 23.8673 41.6531L25.3763 41.8779C25.382 41.3705 25.4406 41.0047 25.5519 40.7804C25.6699 40.5628 25.8439 40.4538 26.074 40.4534C26.3698 40.4529 26.518 40.647 26.5186 41.0358C26.5191 41.3455 26.4473 41.6125 26.303 41.8368C26.1654 42.061 25.9456 42.3019 25.6436 42.5594L24.9544 43.1635C24.6131 43.454 24.3474 43.7608 24.1573 44.084C23.9738 44.4138 23.8824 44.8027 23.8832 45.2508C23.8843 45.9229 24.0824 46.4398 24.4774 46.8015C24.879 47.1633 25.4281 47.3436 26.1249 47.3424C26.8808 47.3411 27.3932 47.1195 27.6619 46.6776C27.9373 46.2357 28.0843 45.6984 28.103 45.0658L26.5842 44.8805C26.5718 45.2957 26.5328 45.5923 26.4674 45.7703C26.4085 45.9549 26.2739 46.0474 26.0636 46.0477C25.9124 46.048 25.794 45.9823 25.7083 45.8506C25.6292 45.7256 25.5895 45.584 25.5893 45.4258C25.5888 45.1557 25.6476 44.9282 25.7656 44.7435C25.8902 44.5588 26.087 44.3476 26.3561 44.11L27.0158 43.5257C27.4096 43.189 27.7147 42.8327 27.931 42.4567C28.1473 42.0808 28.255 41.6358 28.2541 41.1219C28.2535 40.7463 28.1642 40.4038 27.9862 40.0944C27.8148 39.7916 27.5712 39.5515 27.2554 39.3741C26.9395 39.1967 26.5746 39.1083 26.1605 39.109Z" fill="url(#paint10_linear_55_5279)"/>
<path d="M35.1156 47.2186L37.0088 47.2154L37.8785 42.5587L38.8329 47.2124L40.657 47.2093L40.7816 39.2031L39.5294 39.2052L39.3904 44.5329L38.4547 39.207L37.3405 39.2089L36.3635 44.5775L36.2362 39.2108L34.9642 39.2129L35.1156 47.2186Z" fill="url(#paint11_linear_55_5279)"/>
<path d="M47.9149 47.1971L51.5039 47.1911L51.5019 45.9853L49.6778 45.9884L49.6745 44.0017L51.0648 43.9994L51.0627 42.7738L49.6725 42.7761L49.6685 40.3842L51.5123 40.3811L51.5103 39.1852L47.9016 39.1912L47.9149 47.1971Z" fill="url(#paint12_linear_55_5279)"/>
<path d="M59.0078 45.864L57.8049 45.866L57.8071 47.1806L61.9779 47.1736L61.9757 45.859L60.7826 45.861L60.7715 39.1696L58.9967 39.1726L59.0078 45.864Z" fill="url(#paint13_linear_55_5279)"/>
<path d="M68.6562 47.1624L70.4211 47.1594L70.4077 39.1535L68.6428 39.1564L68.6562 47.1624Z" fill="url(#paint14_linear_55_5279)"/>
<path d="M79.8513 39.019C78.9836 39.0205 78.3661 39.2489 77.9987 39.7041C77.638 40.166 77.4583 40.8285 77.4597 41.6917L77.4646 44.5778C77.466 45.4608 77.6479 46.126 78.0102 46.5734C78.3725 47.0275 78.9907 47.2538 79.865 47.2523C80.6998 47.2509 81.2911 47.0489 81.6388 46.6464C81.9865 46.2439 82.1597 45.6736 82.1585 44.9356L82.1574 44.2438L80.4319 44.2466L80.4332 45.0472C80.4337 45.3569 80.4012 45.5942 80.3358 45.759C80.2703 45.9239 80.1127 46.0065 79.8629 46.0069C79.6131 46.0074 79.4487 45.9187 79.3695 45.7409C79.2903 45.5697 79.2505 45.3293 79.25 45.0196L79.2437 41.2538C79.2431 40.9375 79.2822 40.6937 79.3608 40.5222C79.4459 40.3573 79.6101 40.2747 79.8534 40.2743C80.0966 40.2739 80.2512 40.356 80.3172 40.5206C80.3898 40.6918 80.4263 40.9356 80.4269 41.2518L80.4283 42.092L82.1538 42.0891L82.1526 41.3972C82.1514 40.646 81.9762 40.0599 81.6271 39.6387C81.278 39.2242 80.6861 39.0176 79.8513 39.019Z" fill="url(#paint15_linear_55_5279)"/>
<path d="M91.2048 39C90.4423 39.0013 89.874 39.2032 89.5 39.6058C89.1326 40.0149 88.9365 40.661 88.9117 41.544L90.4206 41.7688C90.4264 41.2614 90.4849 40.8956 90.5963 40.6714C90.7142 40.4538 90.8882 40.3447 91.1183 40.3444C91.4141 40.3439 91.5623 40.538 91.563 40.9268C91.5635 41.2365 91.4916 41.5034 91.3474 41.7277C91.2097 41.952 90.9899 42.1929 90.688 42.4504L89.9988 43.0544C89.6575 43.3449 89.3918 43.6518 89.2017 43.975C89.0182 44.3047 88.9268 44.6937 88.9275 45.1417C88.9287 45.8138 89.1267 46.3308 89.5217 46.6925C89.9233 47.0542 90.4725 47.2345 91.1692 47.2334C91.9252 47.2321 92.4375 47.0105 92.7063 46.5686C92.9816 46.1266 93.1286 45.5893 93.1473 44.9567L91.6286 44.7715C91.6161 45.1866 91.5772 45.4832 91.5117 45.6612C91.4529 45.8458 91.3183 45.9383 91.1079 45.9387C90.9567 45.9389 90.8383 45.8732 90.7526 45.7416C90.6735 45.6165 90.6339 45.4749 90.6336 45.3168C90.6332 45.0466 90.6919 44.8192 90.8099 44.6345C90.9345 44.4498 91.1314 44.2386 91.4005 44.0009L92.0601 43.4167C92.454 43.08 92.759 42.7236 92.9753 42.3477C93.1916 41.9717 93.2993 41.5268 93.2985 41.0128C93.2979 40.6372 93.2086 40.2947 93.0306 39.9853C92.8591 39.6825 92.6155 39.4424 92.2997 39.265C91.9839 39.0877 91.6189 38.9993 91.2048 39Z" fill="url(#paint16_linear_55_5279)"/>
</g>
<line x1="0.25" y1="10.75" x2="93.75" y2="10.75" stroke="url(#paint17_linear_55_5279)" stroke-opacity="0.42" stroke-width="0.5" stroke-linecap="square"/>
<defs>
<radialGradient id="paint0_radial_55_5279" cx="0" cy="0" r="1" gradientUnits="userSpaceOnUse" gradientTransform="translate(47 25) rotate(90) scale(13 47)">
<stop offset="0.270833" stop-color="#9F30B1"/>
<stop offset="1" stop-color="#6B6B6B"/>
</radialGradient>
<radialGradient id="paint1_radial_55_5279" cx="0" cy="0" r="1" gradientUnits="userSpaceOnUse" gradientTransform="translate(47 25) rotate(90) scale(13 47)">
<stop offset="0.364583" stop-color="#9F30B1"/>
<stop offset="1" stop-color="#484848"/>
</radialGradient>
<linearGradient id="paint2_linear_55_5279" x1="47" y1="39" x2="46.7091" y2="61.7047" gradientUnits="userSpaceOnUse">
<stop stop-color="#9F30B1"/>
<stop offset="1" stop-color="white" stop-opacity="0"/>
</linearGradient>
<linearGradient id="paint3_linear_55_5279" x1="47" y1="39" x2="46.7091" y2="61.7047" gradientUnits="userSpaceOnUse">
<stop stop-color="#9F30B1"/>
<stop offset="1" stop-color="white" stop-opacity="0"/>
</linearGradient>
<linearGradient id="paint4_linear_55_5279" x1="47" y1="39" x2="46.7091" y2="61.7047" gradientUnits="userSpaceOnUse">
<stop stop-color="#9F30B1"/>
<stop offset="1" stop-color="white" stop-opacity="0"/>
</linearGradient>
<linearGradient id="paint5_linear_55_5279" x1="47" y1="39" x2="46.7091" y2="61.7047" gradientUnits="userSpaceOnUse">
<stop stop-color="#9F30B1"/>
<stop offset="1" stop-color="white" stop-opacity="0"/>
</linearGradient>
<linearGradient id="paint6_linear_55_5279" x1="47" y1="39" x2="46.7091" y2="61.7047" gradientUnits="userSpaceOnUse">
<stop stop-color="#9F30B1"/>
<stop offset="1" stop-color="white" stop-opacity="0"/>
</linearGradient>
<linearGradient id="paint7_linear_55_5279" x1="47" y1="39" x2="46.7091" y2="61.7047" gradientUnits="userSpaceOnUse">
<stop stop-color="#9F30B1"/>
<stop offset="1" stop-color="white" stop-opacity="0"/>
</linearGradient>
<linearGradient id="paint8_linear_55_5279" x1="47" y1="39" x2="46.7091" y2="61.7047" gradientUnits="userSpaceOnUse">
<stop stop-color="#9F30B1"/>
<stop offset="1" stop-color="white" stop-opacity="0"/>
</linearGradient>
<linearGradient id="paint9_linear_55_5279" x1="47" y1="39" x2="46.7091" y2="61.7047" gradientUnits="userSpaceOnUse">
<stop stop-color="#9F30B1"/>
<stop offset="1" stop-color="white" stop-opacity="0"/>
</linearGradient>
<linearGradient id="paint10_linear_55_5279" x1="47" y1="39" x2="46.7091" y2="61.7047" gradientUnits="userSpaceOnUse">
<stop stop-color="#9F30B1"/>
<stop offset="1" stop-color="white" stop-opacity="0"/>
</linearGradient>
<linearGradient id="paint11_linear_55_5279" x1="47" y1="39" x2="46.7091" y2="61.7047" gradientUnits="userSpaceOnUse">
<stop stop-color="#9F30B1"/>
<stop offset="1" stop-color="white" stop-opacity="0"/>
</linearGradient>
<linearGradient id="paint12_linear_55_5279" x1="47" y1="39" x2="46.7091" y2="61.7047" gradientUnits="userSpaceOnUse">
<stop stop-color="#9F30B1"/>
<stop offset="1" stop-color="white" stop-opacity="0"/>
</linearGradient>
<linearGradient id="paint13_linear_55_5279" x1="47" y1="39" x2="46.7091" y2="61.7047" gradientUnits="userSpaceOnUse">
<stop stop-color="#9F30B1"/>
<stop offset="1" stop-color="white" stop-opacity="0"/>
</linearGradient>
<linearGradient id="paint14_linear_55_5279" x1="47" y1="39" x2="46.7091" y2="61.7047" gradientUnits="userSpaceOnUse">
<stop stop-color="#9F30B1"/>
<stop offset="1" stop-color="white" stop-opacity="0"/>
</linearGradient>
<linearGradient id="paint15_linear_55_5279" x1="47" y1="39" x2="46.7091" y2="61.7047" gradientUnits="userSpaceOnUse">
<stop stop-color="#9F30B1"/>
<stop offset="1" stop-color="white" stop-opacity="0"/>
</linearGradient>
<linearGradient id="paint16_linear_55_5279" x1="47" y1="39" x2="46.7091" y2="61.7047" gradientUnits="userSpaceOnUse">
<stop stop-color="#9F30B1"/>
<stop offset="1" stop-color="white" stop-opacity="0"/>
</linearGradient>
<linearGradient id="paint17_linear_55_5279" x1="0" y1="11" x2="94" y2="11" gradientUnits="userSpaceOnUse">
<stop stop-color="#9F30B1"/>
<stop offset="1" stop-color="white"/>
</linearGradient>
</defs>
</svg>
